<svg xmlns="http://www.w3.org/2000/svg" width="1280" height="400" viewBox="0 0 1280 400" role="img"><title>VibeReel — a Jellyfin client for LG webOS that plays the original file</title><rect x="1" y="1" width="1278" height="398" rx="28" fill="#f8f5ee" stroke="#e6dfcf" stroke-width="2"/><rect x="930" y="177.2" width="5" height="45.6" rx="2.5" fill="#c99a3d" fill-opacity="0.160"/><rect x="943" y="168.94" width="5" height="62.120000000000005" rx="2.5" fill="#c99a3d" fill-opacity="0.168"/><rect x="956" y="172.48" width="5" height="55.040000000000006" rx="2.5" fill="#c99a3d" fill-opacity="0.181"/><rect x="969" y="159.5" width="5" height="81.0" rx="2.5" fill="#c99a3d" fill-opacity="0.197"/><rect x="982" y="164.22" width="5" height="71.56" rx="2.5" fill="#c99a3d" fill-opacity="0.215"/><rect x="995" y="150.06" width="5" height="99.88000000000001" rx="2.5" fill="#c99a3d" fill-opacity="0.236"/><rect x="1008" y="157.14" width="5" height="85.72" rx="2.5" fill="#c99a3d" fill-opacity="0.258"/><rect x="1021" y="141.8" width="5" height="116.4" rx="2.5" fill="#c99a3d" fill-opacity="0.281"/><rect x="1034" y="152.42000000000002" width="5" height="95.16" rx="2.5" fill="#c99a3d" fill-opacity="0.306"/><rect x="1047" y="134.72" width="5" height="130.56" rx="2.5" fill="#c99a3d" fill-opacity="0.332"/><rect x="1060" y="145.34" width="5" height="109.32" rx="2.5" fill="#c99a3d" fill-opacity="0.360"/><rect x="1073" y="130.0" width="5" height="140.0" rx="2.5" fill="#c99a3d" fill-opacity="0.388"/><rect x="1086" y="140.62" width="5" height="118.75999999999999" rx="2.5" fill="#c99a3d" fill-opacity="0.418"/><rect x="1099" y="151.24" width="5" height="97.52" rx="2.5" fill="#c99a3d" fill-opacity="0.448"/><rect x="1112" y="138.26" width="5" height="123.48" rx="2.5" fill="#c99a3d" fill-opacity="0.480"/><rect x="1125" y="153.6" width="5" height="92.8" rx="2.5" fill="#c99a3d" fill-opacity="0.512"/><rect x="1138" y="163.04" width="5" height="73.92" rx="2.5" fill="#c99a3d" fill-opacity="0.546"/><rect x="1151" y="171.3" width="5" height="57.4" rx="2.5" fill="#c99a3d" fill-opacity="0.580"/><g opacity="0.8"><path d="M1176 166 L1176 234 L1228 200 Z" fill="#c99a3d" stroke="#c99a3d" stroke-width="7" stroke-linejoin="round"/></g><g transform="translate(96 136) scale(2.0)"><rect width="64" height="64" rx="15" fill="#131109"/><rect x="12.5" y="25.0" width="5.5" height="14" rx="2.75" fill="#e6b450"/><rect x="21" y="19.0" width="5.5" height="26" rx="2.75" fill="#e6b450"/><rect x="29.5" y="23.0" width="5.5" height="18" rx="2.75" fill="#e6b450"/><path d="M39.5 22.5 L39.5 41.5 L52.5 32 Z" fill="#e6b450" stroke="#e6b450" stroke-width="3" stroke-linejoin="round"/></g><path d="M285.18 198.38Q284.63 198.38 284.08 197.97Q283.53 197.55 283.53 196.17L282.01 108.68Q281.87 104.82 281.04 103.3Q280.22 101.78 277.59 101.23L275.8 100.81Q274.14 100.4 274.14 99.16Q274.14 97.64 276.49 97.64H299.26Q301.05 97.64 301.05 99.02Q301.05 100.54 298.29 100.81L295.53 101.09Q293.19 101.23 292.29 102.54Q291.39 103.85 291.39 106.89L292.08 172.16Q292.08 173.54 292.91 173.68Q293.74 173.82 294.29 172.71L324.51 109.78Q328.38 101.92 322.03 101.09L320.1 100.81Q318.03 100.4 318.03 99.16Q318.03 97.64 320.37 97.64H340.38Q342.04 97.64 342.04 99.02Q342.04 100.26 339.83 100.81L337.62 101.23Q334.86 101.78 332.93 103.92Q331 106.06 329.07 109.92L287.81 196.17Q287.25 197.55 286.5 197.97Q285.74 198.38 285.18 198.38ZM352.36 113.51Q349.73 113.51 348.01 111.65Q346.28 109.78 346.28 107.16Q346.28 103.44 348.56 101.23Q350.84 99.02 353.74 99.02Q356.5 99.02 358.36 100.75Q360.22 102.47 360.22 105.23Q360.22 109.09 357.88 111.3Q355.53 113.51 352.36 113.51ZM341.04 198.38Q336.49 198.38 334.55 195Q332.62 191.62 334.42 183.89L344.63 140.14Q345.32 137.11 344.84 135.38Q344.35 133.66 342.28 133.66Q339.8 133.66 336.83 137.31Q333.86 140.97 330.14 151.18Q329.59 152.98 328.21 152.98Q326.14 152.98 327.1 150.49Q330.14 140.97 333.52 135.59Q336.9 130.21 340.35 128Q343.8 125.79 346.7 125.79Q351.53 125.79 353.46 129.17Q355.39 132.55 353.6 140.28L343.39 184.03Q342.7 187.06 343.18 188.79Q343.66 190.51 345.73 190.51Q348.22 190.51 351.18 186.86Q354.15 183.2 357.88 172.99Q358.43 171.19 359.81 171.19Q361.88 171.19 360.91 173.68Q358.01 183.06 354.5 188.51Q350.98 193.96 347.53 196.17Q344.08 198.38 341.04 198.38ZM381.72 198.24Q377.02 198.24 373.37 195.69Q369.71 193.14 368.26 187.96Q366.81 182.79 368.61 175.06L384.06 108.68Q384.75 106.2 384.13 105.23Q383.51 104.26 381.58 104.13L377.44 103.71Q375.37 103.57 375.64 101.92Q375.92 100.68 377.58 100.4Q382.54 99.57 386.41 98.4Q390.27 97.23 392.62 95.29Q393.72 94.47 394.69 94.47Q396.34 94.47 395.93 96.54L383.37 150.77Q383.23 151.74 383.79 151.87Q384.34 152.01 384.75 151.18Q392.34 136.69 398.34 131.24Q404.35 125.79 409.59 125.79Q414.7 125.79 417.66 130.07Q420.63 134.35 420.63 142.63Q420.63 150.49 418.36 158.43Q416.08 166.36 412.14 173.54Q408.21 180.72 403.17 186.24Q398.14 191.76 392.62 195Q387.1 198.24 381.72 198.24ZM382.13 194.79Q385.72 194.79 389.72 191.55Q393.72 188.31 397.52 182.86Q401.31 177.4 404.35 170.57Q407.38 163.74 409.18 156.5Q410.97 149.25 410.97 142.49Q410.97 137.25 409.87 135.11Q408.76 132.97 406 132.97Q402.97 132.97 399.1 136.69Q395.24 140.42 391.24 146.56Q387.24 152.7 383.79 159.88Q380.34 167.05 378.27 174.02Q376.2 180.99 376.2 186.37Q376.2 194.79 382.13 194.79ZM439.23 198.24Q431.91 198.24 427.5 192.51Q423.08 186.79 423.08 176.3Q423.08 167.19 426.32 158.22Q429.57 149.25 434.81 141.94Q440.06 134.62 446.33 130.21Q452.61 125.79 458.55 125.79Q465.03 125.79 467.86 128.9Q470.69 132 470.69 137.25Q470.69 143.46 466.35 149.6Q462 155.74 454.2 160.57Q446.4 165.4 435.92 167.74Q432.88 168.43 432.74 171.19Q432.6 172.16 432.6 173.19Q432.6 174.23 432.6 175.2Q432.6 183.06 435.29 187.06Q437.99 191.07 442.68 191.07Q447.92 191.07 452.82 186.24Q457.72 181.41 461.03 172.57Q461.45 171.33 462.69 171.33Q463.52 171.33 463.72 172.02Q463.93 172.71 463.65 173.68Q459.24 185.82 452.96 192.03Q446.68 198.24 439.23 198.24ZM434.12 162.5Q433.85 163.47 434.47 164.09Q435.09 164.71 436.05 164.43Q444.61 162.09 450.41 157.32Q456.2 152.56 459.17 146.63Q462.14 140.7 462.14 135.04Q462.14 129.24 457.58 129.24Q453.58 129.24 448.89 133.93Q444.2 138.63 440.19 146.22Q436.19 153.81 434.12 162.5ZM523.93 198.24Q518.13 198.24 514.47 194.1Q510.82 189.96 510.95 182.51L511.09 167.19Q511.23 159.74 510.26 155.88Q509.3 152.01 506.68 150.63Q504.05 149.25 498.95 149.25Q495.91 149.25 494.46 150.36Q493.01 151.46 492.46 153.81L484.46 187.34Q483.77 190.24 484.6 191.34Q485.42 192.45 488.87 193L494.95 193.83Q496.88 193.96 496.88 195.34Q496.88 197 494.67 197H465.41Q463.48 197 463.48 195.62Q463.48 194.1 466.24 193.69L469 193.27Q472.04 192.86 473.21 191.82Q474.38 190.79 474.94 187.89L493.7 106.75Q494.39 103.85 493.7 102.88Q493.01 101.92 490.25 101.37L487.49 100.81Q485.7 100.4 485.7 99.3Q485.7 97.64 488.18 97.64H516.2Q524.34 97.64 529.72 100.54Q535.1 103.44 537.8 108.27Q540.49 113.1 540.49 118.89Q540.49 126.21 536.76 132.14Q533.03 138.07 527.03 142.15Q521.03 146.22 514.13 148.15Q513.3 148.29 513.23 148.91Q513.16 149.53 513.99 149.94Q517.85 152.01 519.23 155.74Q520.61 159.46 520.61 165.67V179.75Q520.61 187.34 522.27 190.17Q523.93 193 526.82 193Q527.93 193 528.76 192.65Q529.58 192.31 530.96 191.34Q532.07 190.38 532.96 190.79Q533.86 191.2 533.86 192.31Q533.86 194.24 530.96 196.24Q528.07 198.24 523.93 198.24ZM503.78 145.8Q510.68 145.8 516.75 142.08Q522.82 138.35 526.62 132Q530.41 125.65 530.41 117.79Q530.41 110.06 526.62 105.57Q522.82 101.09 513.44 101.09Q504.61 101.09 503.23 106.61L495.91 138.21Q494.12 145.8 503.78 145.8ZM553.29 198.24Q545.97 198.24 541.56 192.51Q537.14 186.79 537.14 176.3Q537.14 167.19 540.38 158.22Q543.63 149.25 548.87 141.94Q554.11 134.62 560.39 130.21Q566.67 125.79 572.61 125.79Q579.09 125.79 581.92 128.9Q584.75 132 584.75 137.25Q584.75 143.46 580.4 149.6Q576.06 155.74 568.26 160.57Q560.46 165.4 549.97 167.74Q546.94 168.43 546.8 171.19Q546.66 172.16 546.66 173.19Q546.66 174.23 546.66 175.2Q546.66 183.06 549.35 187.06Q552.04 191.07 556.74 191.07Q561.98 191.07 566.88 186.24Q571.78 181.41 575.09 172.57Q575.5 171.33 576.75 171.33Q577.57 171.33 577.78 172.02Q577.99 172.71 577.71 173.68Q573.3 185.82 567.02 192.03Q560.74 198.24 553.29 198.24ZM548.18 162.5Q547.9 163.47 548.53 164.09Q549.15 164.71 550.11 164.43Q558.67 162.09 564.46 157.32Q570.26 152.56 573.23 146.63Q576.19 140.7 576.19 135.04Q576.19 129.24 571.64 129.24Q567.64 129.24 562.95 133.93Q558.25 138.63 554.25 146.22Q550.25 153.81 548.18 162.5ZM600.31 198.24Q593 198.24 588.58 192.51Q584.16 186.79 584.16 176.3Q584.16 167.19 587.41 158.22Q590.65 149.25 595.89 141.94Q601.14 134.62 607.42 130.21Q613.7 125.79 619.63 125.79Q626.12 125.79 628.94 128.9Q631.77 132 631.77 137.25Q631.77 143.46 627.43 149.6Q623.08 155.74 615.28 160.57Q607.49 165.4 597 167.74Q593.96 168.43 593.82 171.19Q593.69 172.16 593.69 173.19Q593.69 174.23 593.69 175.2Q593.69 183.06 596.38 187.06Q599.07 191.07 603.76 191.07Q609 191.07 613.9 186.24Q618.8 181.41 622.11 172.57Q622.53 171.33 623.77 171.33Q624.6 171.33 624.81 172.02Q625.01 172.71 624.74 173.68Q620.32 185.82 614.04 192.03Q607.76 198.24 600.31 198.24ZM595.2 162.5Q594.93 163.47 595.55 164.09Q596.17 164.71 597.14 164.43Q605.69 162.09 611.49 157.32Q617.28 152.56 620.25 146.63Q623.22 140.7 623.22 135.04Q623.22 129.24 618.66 129.24Q614.66 129.24 609.97 133.93Q605.28 138.63 601.28 146.22Q597.27 153.81 595.2 162.5ZM639.74 198.38Q635.19 198.38 633.26 195Q631.33 191.62 633.12 183.89L650.65 108.68Q651.34 106.2 650.72 105.23Q650.09 104.26 648.16 104.13L644.02 103.71Q641.95 103.57 642.23 101.92Q642.5 100.68 644.16 100.4Q649.13 99.57 652.99 98.4Q656.86 97.23 659.2 95.29Q660.31 94.47 661.27 94.47Q662.93 94.47 662.51 96.54L642.09 184.03Q641.4 187.06 641.88 188.79Q642.37 190.51 644.44 190.51Q646.92 190.51 649.89 186.86Q652.85 183.2 656.58 172.99Q657.13 171.19 658.51 171.19Q660.58 171.19 659.62 173.68Q656.72 183.06 653.2 188.51Q649.68 193.96 646.23 196.17Q642.78 198.38 639.74 198.38Z" fill="#16140f"/><path d="M268.18 241 274.95 223.85H278.07L284.88 241H282.3L280.62 236.75H272.27L270.62 241ZM273.05 234.72H279.82L277.75 229.35Q277.68 229.12 277.52 228.72Q277.38 228.32 277.2 227.84Q277.02 227.35 276.85 226.84Q276.68 226.32 276.52 225.9H276.38Q276.2 226.4 275.98 227.05Q275.75 227.7 275.52 228.31Q275.3 228.93 275.15 229.35ZM296.63 241.3Q294.9 241.3 293.66 240.74Q292.43 240.18 291.79 239.09Q291.15 238 291.15 236.35V235.6H293.53V236.47Q293.53 237.82 294.33 238.54Q295.13 239.25 296.63 239.25Q298.15 239.25 298.96 238.28Q299.78 237.3 299.78 235.38V223.85H302.15V235.25Q302.15 237.28 301.5 238.62Q300.85 239.97 299.61 240.64Q298.38 241.3 296.63 241.3ZM311.23 241.3Q309.28 241.3 307.94 240.56Q306.6 239.82 305.91 238.3Q305.23 236.78 305.23 234.43Q305.23 232.05 305.91 230.54Q306.6 229.03 307.95 228.29Q309.3 227.55 311.33 227.55Q313.18 227.55 314.43 228.26Q315.68 228.97 316.31 230.39Q316.95 231.8 316.95 233.93V234.97H307.5Q307.55 236.55 307.96 237.56Q308.38 238.57 309.2 239.04Q310.03 239.5 311.28 239.5Q312.13 239.5 312.76 239.29Q313.4 239.07 313.84 238.68Q314.28 238.28 314.5 237.73Q314.73 237.18 314.75 236.53H316.9Q316.88 237.57 316.5 238.46Q316.13 239.35 315.4 239.97Q314.68 240.6 313.63 240.95Q312.58 241.3 311.23 241.3ZM307.55 233.32H314.68Q314.68 232.22 314.43 231.47Q314.18 230.72 313.71 230.25Q313.25 229.78 312.64 229.56Q312.03 229.35 311.25 229.35Q310.1 229.35 309.3 229.77Q308.5 230.2 308.08 231.07Q307.65 231.95 307.55 233.32ZM319.68 241V222.93H321.88V241ZM325.3 241V222.93H327.5V241ZM332.05 245.55Q331.45 245.55 331.01 245.46Q330.58 245.38 330.43 245.35V243.75H331.53Q332.13 243.75 332.7 243.5Q333.28 243.25 333.78 242.65Q334.28 242.05 334.63 241L329.53 227.85H331.83L334.45 234.62Q334.63 235.1 334.86 235.79Q335.1 236.47 335.34 237.2Q335.58 237.93 335.73 238.47H335.88Q335.98 238.07 336.12 237.57Q336.28 237.07 336.44 236.54Q336.6 236 336.76 235.51Q336.93 235.03 337.03 234.65L339.25 227.85H341.48L337.03 240.62Q336.65 241.7 336.2 242.61Q335.75 243.53 335.2 244.18Q334.65 244.82 333.88 245.19Q333.1 245.55 332.05 245.55ZM344.05 241V229.7H342.1V227.85H344.05V225.75Q344.05 224.97 344.28 224.29Q344.5 223.6 345.13 223.16Q345.75 222.72 346.88 222.72Q347.23 222.72 347.56 222.76Q347.9 222.8 348.21 222.86Q348.53 222.93 348.78 223V224.57H347.45Q346.83 224.57 346.54 224.89Q346.25 225.2 346.25 225.78V227.85H348.78V229.7H346.25V241ZM350.53 225.38V222.93H352.73V225.38ZM350.53 241V227.85H352.73V241ZM356.18 241V227.85H357.95L358.15 229.82H358.33Q358.85 229.03 359.51 228.53Q360.18 228.03 360.99 227.79Q361.8 227.55 362.73 227.55Q363.98 227.55 364.91 227.98Q365.85 228.4 366.39 229.35Q366.93 230.3 366.93 231.93V241H364.73V232.22Q364.73 231.4 364.51 230.88Q364.3 230.35 363.94 230.05Q363.58 229.75 363.06 229.62Q362.55 229.5 361.93 229.5Q361 229.5 360.18 229.95Q359.35 230.4 358.86 231.25Q358.38 232.1 358.38 233.28V241ZM380.48 241.3Q378.58 241.3 377.29 240.56Q376 239.82 375.34 238.29Q374.68 236.75 374.68 234.43Q374.68 232.1 375.34 230.57Q376 229.05 377.31 228.3Q378.63 227.55 380.55 227.55Q381.9 227.55 382.89 227.9Q383.88 228.25 384.53 228.93Q385.18 229.6 385.49 230.55Q385.8 231.5 385.8 232.72H383.58Q383.58 231.57 383.26 230.84Q382.95 230.1 382.28 229.74Q381.6 229.38 380.5 229.38Q379.4 229.38 378.6 229.86Q377.8 230.35 377.38 231.4Q376.95 232.45 376.95 234.18V234.7Q376.95 236.32 377.36 237.4Q377.78 238.47 378.58 238.97Q379.38 239.47 380.53 239.47Q381.65 239.47 382.34 239.07Q383.03 238.68 383.34 237.93Q383.65 237.18 383.65 236.12H385.8Q385.8 237.22 385.49 238.18Q385.18 239.12 384.53 239.82Q383.88 240.53 382.88 240.91Q381.88 241.3 380.48 241.3ZM388.45 241V222.93H390.65V241ZM394.08 225.38V222.93H396.28V225.38ZM394.08 241V227.85H396.28V241ZM404.95 241.3Q403 241.3 401.66 240.56Q400.33 239.82 399.64 238.3Q398.95 236.78 398.95 234.43Q398.95 232.05 399.64 230.54Q400.33 229.03 401.68 228.29Q403.03 227.55 405.05 227.55Q406.9 227.55 408.15 228.26Q409.4 228.97 410.04 230.39Q410.68 231.8 410.68 233.93V234.97H401.23Q401.28 236.55 401.69 237.56Q402.1 238.57 402.93 239.04Q403.75 239.5 405 239.5Q405.85 239.5 406.49 239.29Q407.13 239.07 407.56 238.68Q408 238.28 408.23 237.73Q408.45 237.18 408.48 236.53H410.63Q410.6 237.57 410.23 238.46Q409.85 239.35 409.13 239.97Q408.4 240.6 407.35 240.95Q406.3 241.3 404.95 241.3ZM401.28 233.32H408.4Q408.4 232.22 408.15 231.47Q407.9 230.72 407.44 230.25Q406.98 229.78 406.36 229.56Q405.75 229.35 404.98 229.35Q403.83 229.35 403.03 229.77Q402.23 230.2 401.8 231.07Q401.38 231.95 401.28 233.32ZM413.4 241V227.85H415.18L415.38 229.82H415.55Q416.08 229.03 416.74 228.53Q417.4 228.03 418.21 227.79Q419.03 227.55 419.95 227.55Q421.2 227.55 422.14 227.98Q423.08 228.4 423.61 229.35Q424.15 230.3 424.15 231.93V241H421.95V232.22Q421.95 231.4 421.74 230.88Q421.53 230.35 421.16 230.05Q420.8 229.75 420.29 229.62Q419.78 229.5 419.15 229.5Q418.23 229.5 417.4 229.95Q416.58 230.4 416.09 231.25Q415.6 232.1 415.6 233.28V241ZM430.55 241.3Q429.53 241.3 428.95 240.91Q428.38 240.53 428.13 239.89Q427.88 239.25 427.88 238.53V229.7H426.18V227.85H427.93L428.33 224.18H430.08V227.85H432.55V229.7H430.08V238.2Q430.08 238.82 430.3 239.14Q430.53 239.45 431.15 239.45H432.55V240.9Q432.3 241.03 431.95 241.1Q431.6 241.18 431.24 241.24Q430.88 241.3 430.55 241.3ZM440.65 241V229.7H438.7V227.85H440.65V225.75Q440.65 224.97 440.88 224.29Q441.1 223.6 441.73 223.16Q442.35 222.72 443.48 222.72Q443.83 222.72 444.16 222.76Q444.5 222.8 444.81 222.86Q445.13 222.93 445.38 223V224.57H444.05Q443.43 224.57 443.14 224.89Q442.85 225.2 442.85 225.78V227.85H445.38V229.7H442.85V241ZM452.4 241.3Q450.4 241.3 449.04 240.56Q447.68 239.82 446.96 238.3Q446.25 236.78 446.25 234.43Q446.25 232.05 446.96 230.54Q447.68 229.03 449.04 228.29Q450.4 227.55 452.4 227.55Q454.4 227.55 455.76 228.29Q457.13 229.03 457.83 230.54Q458.53 232.05 458.53 234.43Q458.53 236.78 457.83 238.3Q457.13 239.82 455.76 240.56Q454.4 241.3 452.4 241.3ZM452.4 239.45Q453.68 239.45 454.53 238.95Q455.38 238.45 455.81 237.39Q456.25 236.32 456.25 234.7V234.15Q456.25 232.5 455.81 231.45Q455.38 230.4 454.53 229.9Q453.68 229.4 452.4 229.4Q451.13 229.4 450.26 229.9Q449.4 230.4 448.98 231.45Q448.55 232.5 448.55 234.15V234.7Q448.55 236.32 448.98 237.39Q449.4 238.45 450.26 238.95Q451.13 239.45 452.4 239.45ZM461.25 241V227.85H463.03L463.23 230.03H463.4Q463.6 229.4 463.95 228.84Q464.3 228.28 464.9 227.91Q465.5 227.55 466.38 227.55Q466.75 227.55 467.06 227.61Q467.38 227.68 467.53 227.75V229.78H466.7Q465.85 229.78 465.24 230.06Q464.63 230.35 464.23 230.88Q463.83 231.4 463.64 232.12Q463.45 232.85 463.45 233.68V241ZM474.7 241V223.85H477.08V238.93H485.6V241ZM495.08 241.3Q490.93 241.3 488.76 239.12Q486.6 236.95 486.6 232.43Q486.6 229.47 487.6 227.5Q488.6 225.53 490.55 224.54Q492.5 223.55 495.3 223.55Q497.05 223.55 498.48 223.93Q499.9 224.3 500.94 225.06Q501.98 225.82 502.54 226.97Q503.1 228.12 503.1 229.7H500.68Q500.68 228.6 500.28 227.81Q499.88 227.03 499.14 226.53Q498.4 226.03 497.43 225.81Q496.45 225.6 495.35 225.6Q493.85 225.6 492.68 225.97Q491.5 226.35 490.7 227.15Q489.9 227.95 489.48 229.2Q489.05 230.45 489.05 232.18V232.7Q489.05 235.03 489.76 236.48Q490.48 237.93 491.83 238.59Q493.18 239.25 495.08 239.25Q497 239.25 498.25 238.71Q499.5 238.18 500.11 237.07Q500.73 235.97 500.73 234.3V234H494.68V231.97H503.13V241H501.33L501.08 238.82Q500.4 239.7 499.48 240.25Q498.55 240.8 497.44 241.05Q496.33 241.3 495.08 241.3ZM514.58 241 510.6 227.85H512.88L514.88 235.07Q515.03 235.6 515.16 236.21Q515.3 236.82 515.44 237.34Q515.58 237.85 515.63 238.12H515.78Q515.88 237.65 516.01 237.05Q516.15 236.45 516.26 235.9Q516.38 235.35 516.45 235.05L518.25 227.85H520.63L522.45 235.05Q522.55 235.47 522.68 236.04Q522.8 236.6 522.94 237.15Q523.08 237.7 523.13 238.12H523.28Q523.38 237.72 523.5 237.19Q523.63 236.65 523.78 236.09Q523.93 235.53 524.05 235.1L526.03 227.85H528.13L524.18 241H521.93L520.23 234.2Q520.13 233.72 519.98 233.09Q519.83 232.45 519.69 231.79Q519.55 231.12 519.45 230.62H519.3Q519.25 231 519.14 231.57Q519.03 232.15 518.88 232.84Q518.73 233.53 518.53 234.2L516.83 241ZM535.25 241.3Q533.3 241.3 531.96 240.56Q530.63 239.82 529.94 238.3Q529.25 236.78 529.25 234.43Q529.25 232.05 529.94 230.54Q530.63 229.03 531.98 228.29Q533.33 227.55 535.35 227.55Q537.2 227.55 538.45 228.26Q539.7 228.97 540.34 230.39Q540.98 231.8 540.98 233.93V234.97H531.53Q531.58 236.55 531.99 237.56Q532.4 238.57 533.23 239.04Q534.05 239.5 535.3 239.5Q536.15 239.5 536.79 239.29Q537.43 239.07 537.86 238.68Q538.3 238.28 538.53 237.73Q538.75 237.18 538.78 236.53H540.93Q540.9 237.57 540.53 238.46Q540.15 239.35 539.43 239.97Q538.7 240.6 537.65 240.95Q536.6 241.3 535.25 241.3ZM531.58 233.32H538.7Q538.7 232.22 538.45 231.47Q538.2 230.72 537.74 230.25Q537.28 229.78 536.66 229.56Q536.05 229.35 535.28 229.35Q534.13 229.35 533.33 229.77Q532.53 230.2 532.1 231.07Q531.68 231.95 531.58 233.32ZM549.95 241.3Q548.63 241.3 547.58 240.76Q546.53 240.22 545.85 239.12H545.68L545.45 241H543.7V222.93H545.9V229.5H546.05Q546.5 228.8 547.1 228.38Q547.7 227.95 548.45 227.75Q549.2 227.55 550.05 227.55Q551.58 227.55 552.73 228.28Q553.88 229 554.51 230.5Q555.15 232 555.15 234.32Q555.15 236.78 554.53 238.31Q553.9 239.85 552.75 240.57Q551.6 241.3 549.95 241.3ZM549.43 239.38Q550.55 239.38 551.31 238.93Q552.08 238.47 552.48 237.44Q552.88 236.4 552.88 234.7V234.18Q552.88 232.53 552.5 231.49Q552.13 230.45 551.35 229.96Q550.58 229.47 549.35 229.47Q548.65 229.47 548.03 229.7Q547.4 229.93 546.91 230.48Q546.43 231.03 546.16 231.95Q545.9 232.88 545.9 234.22V234.62Q545.9 236.18 546.26 237.23Q546.63 238.28 547.41 238.82Q548.2 239.38 549.43 239.38ZM566 241.3Q563.33 241.3 561.41 240.32Q559.5 239.35 558.46 237.38Q557.43 235.4 557.43 232.43Q557.43 229.43 558.46 227.46Q559.5 225.5 561.41 224.53Q563.33 223.55 566 223.55Q568.68 223.55 570.59 224.53Q572.5 225.5 573.54 227.46Q574.58 229.43 574.58 232.43Q574.58 235.4 573.54 237.38Q572.5 239.35 570.59 240.32Q568.68 241.3 566 241.3ZM566 239.25Q567.4 239.25 568.54 238.88Q569.68 238.5 570.46 237.69Q571.25 236.88 571.68 235.64Q572.1 234.4 572.1 232.7V232.18Q572.1 230.45 571.68 229.21Q571.25 227.97 570.46 227.16Q569.68 226.35 568.54 225.97Q567.4 225.6 566 225.6Q564.58 225.6 563.45 225.97Q562.33 226.35 561.53 227.16Q560.73 227.97 560.31 229.21Q559.9 230.45 559.9 232.18V232.7Q559.9 234.4 560.31 235.64Q560.73 236.88 561.53 237.69Q562.33 238.5 563.45 238.88Q564.58 239.25 566 239.25ZM584.3 241.3Q582.9 241.3 581.61 241.03Q580.33 240.75 579.33 240.14Q578.33 239.53 577.74 238.55Q577.15 237.57 577.15 236.15Q577.15 236.03 577.16 235.9Q577.18 235.78 577.18 235.65H579.58Q579.58 235.72 579.56 235.89Q579.55 236.05 579.55 236.18Q579.55 237.18 580.15 237.88Q580.75 238.57 581.81 238.91Q582.88 239.25 584.23 239.25Q584.83 239.25 585.49 239.18Q586.15 239.1 586.76 238.91Q587.38 238.72 587.86 238.41Q588.35 238.1 588.64 237.64Q588.93 237.18 588.93 236.5Q588.93 235.65 588.44 235.09Q587.95 234.53 587.15 234.16Q586.35 233.8 585.34 233.51Q584.33 233.22 583.25 232.95Q582.18 232.68 581.16 232.31Q580.15 231.95 579.35 231.41Q578.55 230.88 578.06 230.07Q577.58 229.28 577.58 228.12Q577.58 227.05 578.01 226.2Q578.45 225.35 579.31 224.76Q580.18 224.18 581.45 223.86Q582.73 223.55 584.38 223.55Q585.73 223.55 586.89 223.84Q588.05 224.12 588.94 224.71Q589.83 225.3 590.33 226.2Q590.83 227.1 590.83 228.38V228.68H588.48V228.3Q588.48 227.45 587.95 226.85Q587.43 226.25 586.51 225.93Q585.6 225.6 584.45 225.6Q582.95 225.6 581.95 225.89Q580.95 226.18 580.46 226.71Q579.98 227.25 579.98 227.93Q579.98 228.7 580.46 229.22Q580.95 229.75 581.75 230.09Q582.55 230.43 583.58 230.7Q584.6 230.97 585.66 231.26Q586.73 231.55 587.74 231.91Q588.75 232.28 589.56 232.81Q590.38 233.35 590.85 234.16Q591.33 234.97 591.33 236.15Q591.33 237.97 590.43 239.11Q589.53 240.25 587.95 240.78Q586.38 241.3 584.3 241.3ZM602.7 241.3Q601.68 241.3 601.1 240.91Q600.53 240.53 600.28 239.89Q600.03 239.25 600.03 238.53V229.7H598.33V227.85H600.08L600.48 224.18H602.23V227.85H604.7V229.7H602.23V238.2Q602.23 238.82 602.45 239.14Q602.68 239.45 603.3 239.45H604.7V240.9Q604.45 241.03 604.1 241.1Q603.75 241.18 603.39 241.24Q603.03 241.3 602.7 241.3ZM607.05 241V222.93H609.25V229.5H609.43Q609.93 228.82 610.55 228.4Q611.18 227.97 611.94 227.76Q612.7 227.55 613.6 227.55Q614.85 227.55 615.79 227.98Q616.73 228.4 617.26 229.35Q617.8 230.3 617.8 231.93V241H615.6V232.22Q615.6 231.4 615.39 230.88Q615.18 230.35 614.81 230.05Q614.45 229.75 613.94 229.62Q613.43 229.5 612.8 229.5Q611.88 229.5 611.05 229.94Q610.23 230.38 609.74 231.21Q609.25 232.05 609.25 233.28V241ZM624.43 241.3Q623.7 241.3 622.98 241.12Q622.25 240.95 621.63 240.55Q621 240.15 620.63 239.44Q620.25 238.72 620.25 237.65Q620.25 236.3 620.9 235.43Q621.55 234.55 622.71 234.06Q623.88 233.57 625.48 233.39Q627.08 233.2 628.95 233.2V231.7Q628.95 230.97 628.7 230.45Q628.45 229.93 627.81 229.64Q627.18 229.35 626 229.35Q624.88 229.35 624.21 229.64Q623.55 229.93 623.29 230.38Q623.03 230.82 623.03 231.38V231.75H620.9Q620.88 231.62 620.88 231.5Q620.88 231.38 620.88 231.2Q620.88 230 621.54 229.19Q622.2 228.38 623.4 227.96Q624.6 227.55 626.15 227.55Q627.8 227.55 628.91 228.03Q630.03 228.5 630.59 229.38Q631.15 230.25 631.15 231.47V238.6Q631.15 239.07 631.38 239.26Q631.6 239.45 631.93 239.45H632.9V240.9Q632.55 241.05 632.13 241.16Q631.7 241.28 631.15 241.28Q630.5 241.28 630.08 241.01Q629.65 240.75 629.43 240.29Q629.2 239.82 629.13 239.25H628.95Q628.5 239.88 627.81 240.34Q627.13 240.8 626.28 241.05Q625.43 241.3 624.43 241.3ZM624.98 239.45Q625.78 239.45 626.49 239.2Q627.2 238.95 627.75 238.49Q628.3 238.03 628.63 237.38Q628.95 236.72 628.95 235.95V234.85Q626.93 234.85 625.5 235.07Q624.08 235.3 623.31 235.88Q622.55 236.45 622.55 237.5Q622.55 238.18 622.85 238.6Q623.15 239.03 623.7 239.24Q624.25 239.45 624.98 239.45ZM637.83 241.3Q636.8 241.3 636.23 240.91Q635.65 240.53 635.4 239.89Q635.15 239.25 635.15 238.53V229.7H633.45V227.85H635.2L635.6 224.18H637.35V227.85H639.83V229.7H637.35V238.2Q637.35 238.82 637.58 239.14Q637.8 239.45 638.43 239.45H639.83V240.9Q639.58 241.03 639.23 241.1Q638.88 241.18 638.51 241.24Q638.15 241.3 637.83 241.3ZM647.4 245.32V227.85H649.15L649.38 229.72H649.55Q650.23 228.62 651.28 228.09Q652.33 227.55 653.65 227.55Q655.3 227.55 656.45 228.28Q657.6 229 658.23 230.54Q658.85 232.07 658.85 234.53Q658.85 236.82 658.21 238.34Q657.58 239.85 656.43 240.57Q655.28 241.3 653.75 241.3Q652.9 241.3 652.15 241.1Q651.4 240.9 650.8 240.46Q650.2 240.03 649.75 239.35H649.6V245.32ZM653.05 239.38Q654.28 239.38 655.05 238.89Q655.83 238.4 656.2 237.36Q656.58 236.32 656.58 234.7V234.18Q656.58 232.45 656.18 231.41Q655.78 230.38 655.01 229.93Q654.25 229.47 653.13 229.47Q651.9 229.47 651.11 230.01Q650.33 230.55 649.96 231.62Q649.6 232.7 649.6 234.25V234.62Q649.6 236 649.86 236.91Q650.13 237.82 650.61 238.38Q651.1 238.93 651.73 239.15Q652.35 239.38 653.05 239.38ZM661.58 241V222.93H663.78V241ZM670.5 241.3Q669.78 241.3 669.05 241.12Q668.33 240.95 667.7 240.55Q667.08 240.15 666.7 239.44Q666.33 238.72 666.33 237.65Q666.33 236.3 666.98 235.43Q667.63 234.55 668.79 234.06Q669.95 233.57 671.55 233.39Q673.15 233.2 675.03 233.2V231.7Q675.03 230.97 674.78 230.45Q674.53 229.93 673.89 229.64Q673.25 229.35 672.08 229.35Q670.95 229.35 670.29 229.64Q669.63 229.93 669.36 230.38Q669.1 230.82 669.1 231.38V231.75H666.98Q666.95 231.62 666.95 231.5Q666.95 231.38 666.95 231.2Q666.95 230 667.61 229.19Q668.28 228.38 669.48 227.96Q670.68 227.55 672.23 227.55Q673.88 227.55 674.99 228.03Q676.1 228.5 676.66 229.38Q677.23 230.25 677.23 231.47V238.6Q677.23 239.07 677.45 239.26Q677.68 239.45 678 239.45H678.98V240.9Q678.63 241.05 678.2 241.16Q677.78 241.28 677.23 241.28Q676.58 241.28 676.15 241.01Q675.73 240.75 675.5 240.29Q675.28 239.82 675.2 239.25H675.03Q674.58 239.88 673.89 240.34Q673.2 240.8 672.35 241.05Q671.5 241.3 670.5 241.3ZM671.05 239.45Q671.85 239.45 672.56 239.2Q673.28 238.95 673.83 238.49Q674.38 238.03 674.7 237.38Q675.03 236.72 675.03 235.95V234.85Q673 234.85 671.58 235.07Q670.15 235.3 669.39 235.88Q668.63 236.45 668.63 237.5Q668.63 238.18 668.93 238.6Q669.23 239.03 669.78 239.24Q670.33 239.45 671.05 239.45ZM681.95 245.55Q681.35 245.55 680.91 245.46Q680.48 245.38 680.33 245.35V243.75H681.43Q682.03 243.75 682.6 243.5Q683.18 243.25 683.68 242.65Q684.18 242.05 684.53 241L679.43 227.85H681.73L684.35 234.62Q684.53 235.1 684.76 235.79Q685 236.47 685.24 237.2Q685.48 237.93 685.63 238.47H685.78Q685.88 238.07 686.03 237.57Q686.18 237.07 686.34 236.54Q686.5 236 686.66 235.51Q686.83 235.03 686.93 234.65L689.15 227.85H691.38L686.93 240.62Q686.55 241.7 686.1 242.61Q685.65 243.53 685.1 244.18Q684.55 244.82 683.78 245.19Q683 245.55 681.95 245.55ZM698.03 241.3Q696.68 241.3 695.65 241.03Q694.63 240.75 693.95 240.22Q693.28 239.7 692.93 238.97Q692.58 238.25 692.58 237.32Q692.58 237.2 692.58 237.09Q692.58 236.97 692.6 236.9H694.78Q694.75 237 694.75 237.07Q694.75 237.15 694.75 237.22Q694.78 238.1 695.21 238.6Q695.65 239.1 696.43 239.3Q697.2 239.5 698.15 239.5Q698.98 239.5 699.68 239.29Q700.38 239.07 700.79 238.64Q701.2 238.2 701.2 237.53Q701.2 236.7 700.66 236.26Q700.13 235.82 699.25 235.57Q698.38 235.32 697.43 235.05Q696.63 234.82 695.83 234.55Q695.03 234.28 694.39 233.88Q693.75 233.47 693.36 232.84Q692.98 232.2 692.98 231.22Q692.98 230.35 693.34 229.68Q693.7 229 694.38 228.53Q695.05 228.05 696.01 227.81Q696.98 227.57 698.15 227.57Q699.4 227.57 700.34 227.85Q701.28 228.12 701.9 228.62Q702.53 229.12 702.83 229.76Q703.13 230.4 703.13 231.12Q703.13 231.28 703.13 231.41Q703.13 231.55 703.1 231.62H700.95V231.35Q700.95 230.85 700.69 230.39Q700.43 229.93 699.79 229.64Q699.15 229.35 698.03 229.35Q697.3 229.35 696.78 229.46Q696.25 229.57 695.9 229.81Q695.55 230.05 695.38 230.36Q695.2 230.68 695.2 231.07Q695.2 231.72 695.63 232.07Q696.05 232.43 696.76 232.65Q697.48 232.88 698.3 233.15Q699.18 233.4 700.09 233.66Q701 233.93 701.76 234.32Q702.53 234.72 702.99 235.41Q703.45 236.1 703.45 237.22Q703.45 238.28 703.05 239.05Q702.65 239.82 701.91 240.32Q701.18 240.82 700.19 241.06Q699.2 241.3 698.03 241.3ZM714.48 241.3Q713.45 241.3 712.88 240.91Q712.3 240.53 712.05 239.89Q711.8 239.25 711.8 238.53V229.7H710.1V227.85H711.85L712.25 224.18H714V227.85H716.48V229.7H714V238.2Q714 238.82 714.23 239.14Q714.45 239.45 715.08 239.45H716.48V240.9Q716.23 241.03 715.88 241.1Q715.53 241.18 715.16 241.24Q714.8 241.3 714.48 241.3ZM718.83 241V222.93H721.03V229.5H721.2Q721.7 228.82 722.33 228.4Q722.95 227.97 723.71 227.76Q724.48 227.55 725.38 227.55Q726.63 227.55 727.56 227.98Q728.5 228.4 729.04 229.35Q729.58 230.3 729.58 231.93V241H727.38V232.22Q727.38 231.4 727.16 230.88Q726.95 230.35 726.59 230.05Q726.23 229.75 725.71 229.62Q725.2 229.5 724.58 229.5Q723.65 229.5 722.83 229.94Q722 230.38 721.51 231.21Q721.03 232.05 721.03 233.28V241ZM738.15 241.3Q736.2 241.3 734.86 240.56Q733.53 239.82 732.84 238.3Q732.15 236.78 732.15 234.43Q732.15 232.05 732.84 230.54Q733.53 229.03 734.88 228.29Q736.23 227.55 738.25 227.55Q740.1 227.55 741.35 228.26Q742.6 228.97 743.24 230.39Q743.88 231.8 743.88 233.93V234.97H734.43Q734.48 236.55 734.89 237.56Q735.3 238.57 736.13 239.04Q736.95 239.5 738.2 239.5Q739.05 239.5 739.69 239.29Q740.33 239.07 740.76 238.68Q741.2 238.28 741.43 237.73Q741.65 237.18 741.68 236.53H743.83Q743.8 237.57 743.43 238.46Q743.05 239.35 742.33 239.97Q741.6 240.6 740.55 240.95Q739.5 241.3 738.15 241.3ZM734.48 233.32H741.6Q741.6 232.22 741.35 231.47Q741.1 230.72 740.64 230.25Q740.18 229.78 739.56 229.56Q738.95 229.35 738.18 229.35Q737.03 229.35 736.23 229.77Q735.43 230.2 735 231.07Q734.58 231.95 734.48 233.32ZM757.23 241.3Q755.23 241.3 753.86 240.56Q752.5 239.82 751.79 238.3Q751.08 236.78 751.08 234.43Q751.08 232.05 751.79 230.54Q752.5 229.03 753.86 228.29Q755.23 227.55 757.23 227.55Q759.23 227.55 760.59 228.29Q761.95 229.03 762.65 230.54Q763.35 232.05 763.35 234.43Q763.35 236.78 762.65 238.3Q761.95 239.82 760.59 240.56Q759.23 241.3 757.23 241.3ZM757.23 239.45Q758.5 239.45 759.35 238.95Q760.2 238.45 760.64 237.39Q761.08 236.32 761.08 234.7V234.15Q761.08 232.5 760.64 231.45Q760.2 230.4 759.35 229.9Q758.5 229.4 757.23 229.4Q755.95 229.4 755.09 229.9Q754.23 230.4 753.8 231.45Q753.38 232.5 753.38 234.15V234.7Q753.38 236.32 753.8 237.39Q754.23 238.45 755.09 238.95Q755.95 239.45 757.23 239.45ZM766.08 241V227.85H767.85L768.05 230.03H768.23Q768.43 229.4 768.78 228.84Q769.13 228.28 769.73 227.91Q770.33 227.55 771.2 227.55Q771.58 227.55 771.89 227.61Q772.2 227.68 772.35 227.75V229.78H771.53Q770.68 229.78 770.06 230.06Q769.45 230.35 769.05 230.88Q768.65 231.4 768.46 232.12Q768.28 232.85 768.28 233.68V241ZM774.38 225.38V222.93H776.58V225.38ZM774.38 241V227.85H776.58V241ZM782.23 245.55Q781.28 245.55 780.48 245.16Q779.68 244.78 779.2 244.05Q778.73 243.32 778.73 242.32Q778.73 241.22 779.34 240.5Q779.95 239.78 780.8 239.43Q780.18 239.12 779.83 238.59Q779.48 238.05 779.48 237.4Q779.48 236.53 780.11 235.93Q780.75 235.32 781.68 235.12Q780.83 234.57 780.34 233.71Q779.85 232.85 779.85 231.8Q779.85 230.55 780.44 229.6Q781.03 228.65 782.24 228.1Q783.45 227.55 785.2 227.55Q786 227.55 786.7 227.66Q787.4 227.78 787.95 228.03Q788.83 227.62 789.26 227Q789.7 226.38 789.8 225.72H791.98Q791.98 226.47 791.64 227.14Q791.3 227.8 790.73 228.24Q790.15 228.68 789.33 228.82Q789.95 229.43 790.26 230.18Q790.58 230.93 790.58 231.8Q790.58 233.05 789.99 234.01Q789.4 234.97 788.23 235.52Q787.05 236.07 785.28 236.07H783.23Q782.55 236.07 782.13 236.34Q781.7 236.6 781.7 237.18Q781.7 237.68 782.13 237.99Q782.55 238.3 783.23 238.3H788.58Q790.03 238.3 790.95 239.26Q791.88 240.22 791.88 241.72Q791.88 242.8 791.34 243.66Q790.8 244.53 789.84 245.04Q788.88 245.55 787.6 245.55ZM782.85 243.88H787.58Q788.15 243.88 788.63 243.64Q789.1 243.4 789.38 242.98Q789.65 242.55 789.65 242.05Q789.65 241.2 789.15 240.7Q788.65 240.2 787.9 240.2H782.85Q782.05 240.2 781.5 240.74Q780.95 241.28 780.95 242.05Q780.95 242.88 781.5 243.38Q782.05 243.88 782.85 243.88ZM785.23 234.43Q786.83 234.43 787.6 233.73Q788.38 233.03 788.38 231.8Q788.38 230.6 787.6 229.9Q786.83 229.2 785.23 229.2Q783.63 229.2 782.84 229.9Q782.05 230.6 782.05 231.8Q782.05 232.57 782.4 233.18Q782.75 233.78 783.45 234.1Q784.15 234.43 785.23 234.43ZM793.9 225.38V222.93H796.1V225.38ZM793.9 241V227.85H796.1V241ZM799.53 241V227.85H801.3L801.5 229.82H801.68Q802.2 229.03 802.86 228.53Q803.53 228.03 804.34 227.79Q805.15 227.55 806.08 227.55Q807.33 227.55 808.26 227.98Q809.2 228.4 809.74 229.35Q810.28 230.3 810.28 231.93V241H808.08V232.22Q808.08 231.4 807.86 230.88Q807.65 230.35 807.29 230.05Q806.93 229.75 806.41 229.62Q805.9 229.5 805.28 229.5Q804.35 229.5 803.53 229.95Q802.7 230.4 802.21 231.25Q801.73 232.1 801.73 233.28V241ZM816.9 241.3Q816.18 241.3 815.45 241.12Q814.73 240.95 814.1 240.55Q813.48 240.15 813.1 239.44Q812.73 238.72 812.73 237.65Q812.73 236.3 813.38 235.43Q814.03 234.55 815.19 234.06Q816.35 233.57 817.95 233.39Q819.55 233.2 821.43 233.2V231.7Q821.43 230.97 821.18 230.45Q820.93 229.93 820.29 229.64Q819.65 229.35 818.48 229.35Q817.35 229.35 816.69 229.64Q816.03 229.93 815.76 230.38Q815.5 230.82 815.5 231.38V231.75H813.38Q813.35 231.62 813.35 231.5Q813.35 231.38 813.35 231.2Q813.35 230 814.01 229.19Q814.68 228.38 815.88 227.96Q817.08 227.55 818.63 227.55Q820.28 227.55 821.39 228.03Q822.5 228.5 823.06 229.38Q823.63 230.25 823.63 231.47V238.6Q823.63 239.07 823.85 239.26Q824.08 239.45 824.4 239.45H825.38V240.9Q825.03 241.05 824.6 241.16Q824.18 241.28 823.63 241.28Q822.98 241.28 822.55 241.01Q822.13 240.75 821.9 240.29Q821.68 239.82 821.6 239.25H821.43Q820.98 239.88 820.29 240.34Q819.6 240.8 818.75 241.05Q817.9 241.3 816.9 241.3ZM817.45 239.45Q818.25 239.45 818.96 239.2Q819.68 238.95 820.23 238.49Q820.78 238.03 821.1 237.38Q821.43 236.72 821.43 235.95V234.85Q819.4 234.85 817.98 235.07Q816.55 235.3 815.79 235.88Q815.03 236.45 815.03 237.5Q815.03 238.18 815.33 238.6Q815.63 239.03 816.18 239.24Q816.73 239.45 817.45 239.45ZM827.23 241V222.93H829.43V241ZM838.6 241V229.7H836.65V227.85H838.6V225.75Q838.6 224.97 838.83 224.29Q839.05 223.6 839.68 223.16Q840.3 222.72 841.43 222.72Q841.78 222.72 842.11 222.76Q842.45 222.8 842.76 222.86Q843.08 222.93 843.33 223V224.57H842Q841.38 224.57 841.09 224.89Q840.8 225.2 840.8 225.78V227.85H843.33V229.7H840.8V241ZM845.08 225.38V222.93H847.28V225.38ZM845.08 241V227.85H847.28V241ZM850.73 241V222.93H852.93V241ZM861.6 241.3Q859.65 241.3 858.31 240.56Q856.98 239.82 856.29 238.3Q855.6 236.78 855.6 234.43Q855.6 232.05 856.29 230.54Q856.98 229.03 858.33 228.29Q859.68 227.55 861.7 227.55Q863.55 227.55 864.8 228.26Q866.05 228.97 866.69 230.39Q867.33 231.8 867.33 233.93V234.97H857.88Q857.93 236.55 858.34 237.56Q858.75 238.57 859.58 239.04Q860.4 239.5 861.65 239.5Q862.5 239.5 863.14 239.29Q863.78 239.07 864.21 238.68Q864.65 238.28 864.88 237.73Q865.1 237.18 865.13 236.53H867.28Q867.25 237.57 866.88 238.46Q866.5 239.35 865.78 239.97Q865.05 240.6 864 240.95Q862.95 241.3 861.6 241.3ZM857.93 233.32H865.05Q865.05 232.22 864.8 231.47Q864.55 230.72 864.09 230.25Q863.63 229.78 863.01 229.56Q862.4 229.35 861.63 229.35Q860.48 229.35 859.68 229.77Q858.88 230.2 858.45 231.07Q858.03 231.95 857.93 233.32ZM870.55 241V238.38H873V241Z" fill="#5f594d"/><rect x="268" y="269" width="121.7" height="34" rx="17" fill="none" stroke="#b08530" stroke-opacity="0.55" stroke-width="1.5"/><path d="M285.3 291.5V280.52H287.09V285.12H292.66V280.52H294.45V291.5H292.66V286.65H287.09V291.5ZM297.55 291.5V289.64H299.33V291.5ZM301.95 291.5V291Q301.95 290.32 302.22 289.73Q302.48 289.15 302.92 288.67Q303.36 288.19 303.9 287.76Q304.45 287.32 305.01 286.92Q305.74 286.4 306.37 285.87Q306.99 285.34 307.38 284.73Q307.78 284.12 307.78 283.37Q307.78 282.94 307.58 282.57Q307.38 282.2 306.96 281.97Q306.54 281.74 305.87 281.74Q305.14 281.74 304.68 281.99Q304.22 282.24 304.01 282.66Q303.79 283.08 303.79 283.64V284.3H302.13Q302.11 284.22 302.1 284.06Q302.08 283.9 302.08 283.66Q302.08 282.48 302.62 281.75Q303.15 281.02 304.04 280.68Q304.93 280.33 305.95 280.33Q306.94 280.33 307.62 280.61Q308.3 280.89 308.71 281.36Q309.12 281.82 309.3 282.38Q309.49 282.94 309.49 283.47Q309.49 284.24 309.22 284.86Q308.96 285.48 308.49 286.03Q308.02 286.57 307.38 287.08Q306.75 287.58 306.03 288.08Q305.58 288.38 305.16 288.7Q304.74 289.02 304.42 289.35Q304.1 289.68 303.98 289.98H309.55V291.5ZM315.52 291.69Q314.58 291.69 313.83 291.42Q313.09 291.15 312.56 290.53Q312.03 289.92 311.76 288.88Q311.49 287.85 311.49 286.33Q311.49 284.64 311.75 283.48Q312.02 282.33 312.53 281.64Q313.04 280.94 313.78 280.64Q314.51 280.33 315.46 280.33Q316.64 280.33 317.38 280.78Q318.13 281.23 318.47 282Q318.82 282.76 318.82 283.74H317.12Q317.12 283.08 316.94 282.63Q316.75 282.17 316.36 281.94Q315.97 281.71 315.38 281.71Q314.5 281.71 314.02 282.18Q313.55 282.65 313.38 283.52Q313.22 284.4 313.2 285.61Q313.36 285.36 313.73 285.08Q314.1 284.81 314.63 284.63Q315.17 284.44 315.81 284.44Q316.98 284.44 317.73 284.92Q318.48 285.39 318.84 286.2Q319.2 287.02 319.2 288.04Q319.2 289.15 318.72 289.97Q318.24 290.8 317.41 291.24Q316.58 291.69 315.52 291.69ZM315.41 290.32Q316.11 290.32 316.57 290Q317.02 289.69 317.25 289.17Q317.47 288.65 317.47 288.03Q317.47 287.4 317.26 286.9Q317.04 286.4 316.58 286.1Q316.13 285.8 315.42 285.8Q314.72 285.8 314.26 286.1Q313.79 286.4 313.57 286.91Q313.34 287.42 313.34 288.08Q313.34 288.68 313.57 289.2Q313.79 289.72 314.25 290.02Q314.7 290.32 315.41 290.32ZM324.91 291.69Q323.76 291.69 322.89 291.26Q322.02 290.83 321.54 290.02Q321.06 289.21 321.06 288.09H322.77Q322.77 288.78 323.04 289.28Q323.31 289.79 323.8 290.05Q324.29 290.32 324.91 290.32Q325.52 290.32 325.99 290.05Q326.46 289.79 326.73 289.25Q326.99 288.72 326.99 287.92Q326.99 287.18 326.74 286.69Q326.5 286.2 326.04 285.97Q325.58 285.74 324.99 285.74Q324.56 285.74 324.18 285.88Q323.79 286.01 323.5 286.25Q323.22 286.49 323.01 286.83L321.44 286.6L321.89 280.52H328.14V282.06H323.34L323.12 285.13Q323.38 284.94 323.69 284.76Q324 284.59 324.42 284.48Q324.85 284.36 325.39 284.36Q326.32 284.36 327.07 284.75Q327.82 285.13 328.27 285.91Q328.72 286.68 328.72 287.9Q328.72 289.1 328.26 289.95Q327.79 290.8 326.94 291.24Q326.1 291.69 324.91 291.69ZM335.3 286.73V284.86H337.1V286.73ZM343.04 291.5 347.34 280.52H349.63L353.95 291.5H352.03L351.06 288.96H345.86L344.88 291.5ZM346.43 287.44H350.46L349.23 284.22Q349.18 284.08 349.09 283.82Q348.99 283.56 348.89 283.26Q348.78 282.96 348.68 282.64Q348.58 282.33 348.5 282.08H348.4Q348.3 282.38 348.16 282.8Q348.02 283.21 347.88 283.6Q347.74 283.98 347.65 284.22ZM358.18 291.5 354.13 280.52H356.06L358.78 288.19Q358.86 288.38 358.94 288.64Q359.02 288.89 359.1 289.12Q359.18 289.36 359.25 289.53H359.33Q359.39 289.36 359.47 289.13Q359.55 288.91 359.63 288.67Q359.71 288.43 359.79 288.2L362.48 280.52H364.35L360.29 291.5ZM366.21 291.5V290.11H368.93V282.83H366.21V281.79Q366.74 281.76 367.38 281.6Q368.02 281.44 368.66 281.16Q369.3 280.89 369.82 280.51H370.61V290.11H373.12V291.5Z" fill="#8a6420"/><rect x="399.664" y="269" width="242.2" height="34" rx="17" fill="none" stroke="#b08530" stroke-opacity="0.55" stroke-width="1.5"/><path d="M416.96 291.5V280.52H418.75V285.12H424.32V280.52H426.11V291.5H424.32V286.65H418.75V291.5ZM429.1 291.5V280.52H433.34Q435.04 280.52 436.24 281.11Q437.44 281.69 438.09 282.9Q438.74 284.11 438.74 286.01Q438.74 287.9 438.09 289.12Q437.44 290.33 436.24 290.92Q435.04 291.5 433.34 291.5ZM430.9 289.96H433.33Q434.18 289.96 434.84 289.74Q435.5 289.52 435.96 289.05Q436.42 288.59 436.65 287.88Q436.88 287.16 436.88 286.19V285.85Q436.88 284.86 436.65 284.15Q436.42 283.44 435.96 282.97Q435.5 282.51 434.84 282.28Q434.18 282.06 433.33 282.06H430.9ZM441.2 291.5V280.52H446.98Q448.14 280.52 448.91 280.94Q449.68 281.36 450.06 282.1Q450.45 282.84 450.45 283.84Q450.45 284.94 449.95 285.76Q449.46 286.57 448.54 286.96L450.83 291.5H448.88L446.8 287.26H442.99V291.5ZM442.99 285.76H446.83Q447.7 285.76 448.17 285.24Q448.64 284.73 448.64 283.82Q448.64 283.26 448.43 282.87Q448.22 282.48 447.82 282.27Q447.42 282.06 446.83 282.06H442.99ZM453.15 291.5V290.11H455.87V282.83H453.15V281.79Q453.68 281.76 454.32 281.6Q454.96 281.44 455.6 281.16Q456.24 280.89 456.77 280.51H457.55V290.11H460.06V291.5ZM465.6 291.69Q464.72 291.69 464.01 291.43Q463.3 291.16 462.81 290.52Q462.32 289.88 462.06 288.79Q461.79 287.69 461.79 286.01Q461.79 284.33 462.06 283.24Q462.32 282.14 462.81 281.5Q463.3 280.86 464.01 280.6Q464.72 280.33 465.6 280.33Q466.5 280.33 467.2 280.6Q467.9 280.86 468.39 281.5Q468.88 282.14 469.14 283.24Q469.41 284.33 469.41 286.01Q469.41 287.69 469.14 288.79Q468.88 289.88 468.39 290.52Q467.9 291.16 467.2 291.43Q466.5 291.69 465.6 291.69ZM465.6 290.32Q466.45 290.32 466.89 289.88Q467.33 289.44 467.5 288.57Q467.68 287.71 467.68 286.43V285.64Q467.68 284.33 467.5 283.46Q467.33 282.59 466.89 282.15Q466.45 281.71 465.6 281.71Q464.77 281.71 464.32 282.15Q463.87 282.59 463.7 283.45Q463.52 284.32 463.52 285.61V286.4Q463.52 287.68 463.7 288.56Q463.87 289.44 464.32 289.88Q464.77 290.32 465.6 290.32ZM476.03 286.73V284.86H477.84V286.73ZM484.98 291.5V280.52H486.77V285.12H492.34V280.52H494.13V291.5H492.34V286.65H486.77V291.5ZM497.12 291.5V280.52H498.91V289.95H504.38V291.5ZM510.85 291.69Q508.24 291.69 506.84 290.32Q505.44 288.94 505.44 286.01Q505.44 284.09 506.1 282.84Q506.75 281.58 508 280.96Q509.25 280.33 511.04 280.33Q512.11 280.33 513.03 280.57Q513.95 280.81 514.65 281.3Q515.34 281.79 515.72 282.52Q516.1 283.26 516.1 284.27H514.27Q514.27 283.64 514.02 283.19Q513.78 282.73 513.34 282.43Q512.9 282.12 512.31 281.99Q511.73 281.85 511.07 281.85Q510.16 281.85 509.45 282.09Q508.74 282.33 508.26 282.83Q507.78 283.32 507.54 284.08Q507.3 284.83 507.3 285.85V286.19Q507.3 287.6 507.7 288.48Q508.11 289.36 508.92 289.76Q509.73 290.17 510.9 290.17Q512 290.17 512.75 289.85Q513.5 289.53 513.9 288.9Q514.3 288.27 514.3 287.32V287.16H510.61V285.68H516.1V291.5H514.8L514.62 290.19Q514.18 290.72 513.6 291.04Q513.02 291.37 512.34 291.53Q511.66 291.69 510.85 291.69ZM523.14 286.73V284.86H524.94V286.73ZM532.08 291.5V280.52H536.32Q538.02 280.52 539.22 281.11Q540.42 281.69 541.06 282.9Q541.71 284.11 541.71 286.01Q541.71 287.9 541.06 289.12Q540.42 290.33 539.22 290.92Q538.02 291.5 536.32 291.5ZM533.87 289.96H536.3Q537.15 289.96 537.82 289.74Q538.48 289.52 538.94 289.05Q539.39 288.59 539.62 287.88Q539.86 287.16 539.86 286.19V285.85Q539.86 284.86 539.62 284.15Q539.39 283.44 538.94 282.97Q538.48 282.51 537.82 282.28Q537.15 282.06 536.3 282.06H533.87ZM547.54 291.69Q546.22 291.69 545.32 291.22Q544.42 290.75 543.96 289.77Q543.5 288.8 543.5 287.29Q543.5 285.77 543.96 284.8Q544.42 283.84 545.32 283.36Q546.22 282.89 547.54 282.89Q548.88 282.89 549.78 283.36Q550.67 283.84 551.13 284.8Q551.58 285.77 551.58 287.29Q551.58 288.8 551.13 289.77Q550.67 290.75 549.78 291.22Q548.88 291.69 547.54 291.69ZM547.54 290.32Q548.34 290.32 548.85 290Q549.36 289.69 549.61 289.05Q549.86 288.41 549.86 287.44V287.15Q549.86 286.17 549.61 285.53Q549.36 284.89 548.85 284.58Q548.34 284.27 547.54 284.27Q546.75 284.27 546.24 284.58Q545.73 284.89 545.48 285.53Q545.23 286.17 545.23 287.15V287.44Q545.23 288.41 545.48 289.05Q545.73 289.69 546.24 290Q546.75 290.32 547.54 290.32ZM553.68 291.5V279.93H555.34V291.5ZM562.11 291.69Q561.28 291.69 560.61 291.36Q559.94 291.02 559.5 290.35H559.39L559.25 291.5H557.89V279.93H559.55V284.11H559.65Q559.92 283.69 560.3 283.42Q560.67 283.15 561.15 283.02Q561.63 282.89 562.19 282.89Q563.15 282.89 563.89 283.36Q564.62 283.82 565.03 284.78Q565.44 285.74 565.44 287.26Q565.44 288.81 565.04 289.79Q564.64 290.76 563.9 291.23Q563.15 291.69 562.11 291.69ZM561.65 290.25Q562.37 290.25 562.82 289.96Q563.28 289.68 563.5 289.06Q563.73 288.44 563.73 287.45V287.16Q563.73 286.17 563.51 285.55Q563.3 284.92 562.83 284.63Q562.37 284.33 561.62 284.33Q561.15 284.33 560.77 284.49Q560.38 284.65 560.11 285Q559.84 285.34 559.7 285.88Q559.55 286.43 559.55 287.2V287.42Q559.55 288.33 559.77 288.96Q559.98 289.6 560.45 289.92Q560.91 290.25 561.65 290.25ZM568.45 294.41Q567.97 294.41 567.65 294.34Q567.33 294.27 567.25 294.25V293.05H568.05Q568.4 293.05 568.76 292.89Q569.12 292.73 569.41 292.38Q569.7 292.03 569.89 291.5L566.61 283.08H568.35L569.98 287.28Q570.1 287.56 570.23 288Q570.37 288.43 570.5 288.88Q570.64 289.32 570.74 289.68H570.82Q570.9 289.44 570.98 289.12Q571.07 288.81 571.17 288.48Q571.26 288.14 571.36 287.83Q571.46 287.52 571.52 287.29L572.88 283.08H574.58L571.73 291.18Q571.49 291.85 571.2 292.44Q570.91 293.04 570.54 293.48Q570.16 293.92 569.65 294.16Q569.14 294.41 568.45 294.41ZM583.01 291.5 578.96 280.52H580.9L583.62 288.19Q583.7 288.38 583.78 288.64Q583.86 288.89 583.94 289.12Q584.02 289.36 584.08 289.53H584.16Q584.22 289.36 584.3 289.13Q584.38 288.91 584.46 288.67Q584.54 288.43 584.62 288.2L587.31 280.52H589.18L585.12 291.5ZM590.82 281.63V279.93H592.48V281.63ZM590.82 291.5V283.08H592.48V291.5ZM598.13 291.69Q597.25 291.69 596.58 291.5Q595.9 291.31 595.46 290.97Q595.01 290.64 594.78 290.16Q594.54 289.69 594.54 289.12Q594.54 289.04 594.55 288.97Q594.56 288.91 594.56 288.86H596.21Q596.21 288.91 596.21 288.95Q596.21 288.99 596.21 289.04Q596.21 289.53 596.48 289.83Q596.75 290.12 597.21 290.24Q597.66 290.36 598.21 290.36Q598.69 290.36 599.1 290.24Q599.5 290.12 599.77 289.88Q600.03 289.64 600.03 289.28Q600.03 288.8 599.7 288.54Q599.36 288.28 598.82 288.13Q598.27 287.98 597.68 287.8Q597.15 287.66 596.63 287.49Q596.11 287.32 595.7 287.05Q595.28 286.78 595.02 286.36Q594.77 285.95 594.77 285.32Q594.77 284.73 595.02 284.28Q595.28 283.84 595.74 283.53Q596.19 283.23 596.82 283.07Q597.46 282.91 598.21 282.91Q598.99 282.91 599.6 283.08Q600.21 283.24 600.63 283.55Q601.06 283.85 601.28 284.28Q601.5 284.7 601.5 285.18Q601.5 285.28 601.5 285.38Q601.49 285.48 601.49 285.52H599.86V285.37Q599.86 285.05 599.68 284.8Q599.5 284.54 599.13 284.38Q598.75 284.22 598.13 284.22Q597.71 284.22 597.39 284.29Q597.07 284.36 596.86 284.49Q596.66 284.62 596.55 284.8Q596.45 284.97 596.45 285.2Q596.45 285.56 596.71 285.76Q596.98 285.96 597.41 286.1Q597.84 286.24 598.34 286.4Q598.91 286.56 599.5 286.72Q600.1 286.89 600.6 287.15Q601.1 287.4 601.42 287.85Q601.73 288.3 601.73 289.05Q601.73 289.74 601.46 290.25Q601.18 290.76 600.7 291.08Q600.21 291.39 599.55 291.54Q598.9 291.69 598.13 291.69ZM603.81 281.63V279.93H605.47V281.63ZM603.81 291.5V283.08H605.47V291.5ZM611.6 291.69Q610.29 291.69 609.38 291.22Q608.48 290.75 608.02 289.77Q607.57 288.8 607.57 287.29Q607.57 285.77 608.02 284.8Q608.48 283.84 609.38 283.36Q610.29 282.89 611.6 282.89Q612.94 282.89 613.84 283.36Q614.74 283.84 615.19 284.8Q615.65 285.77 615.65 287.29Q615.65 288.8 615.19 289.77Q614.74 290.75 613.84 291.22Q612.94 291.69 611.6 291.69ZM611.6 290.32Q612.4 290.32 612.91 290Q613.42 289.69 613.67 289.05Q613.92 288.41 613.92 287.44V287.15Q613.92 286.17 613.67 285.53Q613.42 284.89 612.91 284.58Q612.4 284.27 611.6 284.27Q610.82 284.27 610.3 284.58Q609.79 284.89 609.54 285.53Q609.3 286.17 609.3 287.15V287.44Q609.3 288.41 609.54 289.05Q609.79 289.69 610.3 290Q610.82 290.32 611.6 290.32ZM617.74 291.5V283.08H619.12L619.26 284.28H619.38Q619.68 283.82 620.1 283.52Q620.51 283.21 621.02 283.05Q621.52 282.89 622.13 282.89Q622.93 282.89 623.54 283.17Q624.14 283.45 624.49 284.08Q624.83 284.7 624.83 285.76V291.5H623.17V286.01Q623.17 285.53 623.05 285.21Q622.93 284.89 622.7 284.7Q622.48 284.51 622.18 284.43Q621.87 284.35 621.5 284.35Q620.93 284.35 620.46 284.63Q619.98 284.91 619.7 285.4Q619.41 285.9 619.41 286.57V291.5Z" fill="#8a6420"/><rect x="651.84" y="269" width="227.4" height="34" rx="17" fill="none" stroke="#b08530" stroke-opacity="0.55" stroke-width="1.5"/><path d="M669.14 291.5V280.52H673.38Q675.07 280.52 676.27 281.11Q677.47 281.69 678.12 282.9Q678.77 284.11 678.77 286.01Q678.77 287.9 678.12 289.12Q677.47 290.33 676.27 290.92Q675.07 291.5 673.38 291.5ZM670.93 289.96H673.36Q674.21 289.96 674.87 289.74Q675.54 289.52 675.99 289.05Q676.45 288.59 676.68 287.88Q676.91 287.16 676.91 286.19V285.85Q676.91 284.86 676.68 284.15Q676.45 283.44 675.99 282.97Q675.54 282.51 674.87 282.28Q674.21 282.06 673.36 282.06H670.93ZM681.23 291.5V280.52H685.47Q687.17 280.52 688.37 281.11Q689.57 281.69 690.22 282.9Q690.86 284.11 690.86 286.01Q690.86 287.9 690.22 289.12Q689.57 290.33 688.37 290.92Q687.17 291.5 685.47 291.5ZM683.02 289.96H685.46Q686.3 289.96 686.97 289.74Q687.63 289.52 688.09 289.05Q688.54 288.59 688.78 287.88Q689.01 287.16 689.01 286.19V285.85Q689.01 284.86 688.78 284.15Q688.54 283.44 688.09 282.97Q687.63 282.51 686.97 282.28Q686.3 282.06 685.46 282.06H683.02ZM696.38 291.5V288.11H693.3V286.73H696.38V283.32H697.74V286.73H700.85V288.11H697.74V291.5ZM706.19 292.28 709.66 279.74H710.93L707.46 292.28ZM715.1 291.5 719.41 280.52H721.7L726.02 291.5H724.1L723.12 288.96H717.92L716.94 291.5ZM718.5 287.44H722.53L721.3 284.22Q721.25 284.08 721.15 283.82Q721.06 283.56 720.95 283.26Q720.85 282.96 720.74 282.64Q720.64 282.33 720.56 282.08H720.46Q720.37 282.38 720.22 282.8Q720.08 283.21 719.94 283.6Q719.81 283.98 719.71 284.22ZM729.7 291.69Q728.98 291.69 728.57 291.41Q728.16 291.13 727.99 290.69Q727.82 290.25 727.82 289.76V284.46H726.77V283.08H727.86L728.16 280.73H729.49V283.08H731.01V284.46H729.49V289.56Q729.49 289.93 729.65 290.12Q729.81 290.32 730.18 290.32H731.01V291.44Q730.85 291.5 730.62 291.56Q730.38 291.61 730.14 291.65Q729.9 291.69 729.7 291.69ZM732.88 291.5V283.08H734.26L734.4 284.28H734.51Q734.8 283.82 735.18 283.52Q735.55 283.21 736.02 283.05Q736.5 282.89 737.04 282.89Q737.82 282.89 738.41 283.21Q738.99 283.53 739.3 284.28H739.41Q739.7 283.84 740.08 283.52Q740.46 283.21 740.95 283.05Q741.44 282.89 742 282.89Q742.75 282.89 743.33 283.16Q743.9 283.42 744.24 284.04Q744.58 284.65 744.58 285.68V291.5H742.91V285.98Q742.91 285.5 742.8 285.19Q742.69 284.88 742.5 284.69Q742.3 284.51 742.03 284.43Q741.76 284.35 741.44 284.35Q740.91 284.35 740.5 284.63Q740.08 284.91 739.82 285.4Q739.57 285.9 739.57 286.57V291.5H737.9V285.98Q737.9 285.5 737.79 285.19Q737.68 284.88 737.49 284.69Q737.3 284.51 737.02 284.43Q736.75 284.35 736.45 284.35Q735.92 284.35 735.49 284.63Q735.06 284.91 734.8 285.4Q734.54 285.9 734.54 286.57V291.5ZM750.62 291.69Q749.31 291.69 748.41 291.22Q747.5 290.75 747.05 289.77Q746.59 288.8 746.59 287.29Q746.59 285.77 747.05 284.8Q747.5 283.84 748.41 283.36Q749.31 282.89 750.62 282.89Q751.97 282.89 752.86 283.36Q753.76 283.84 754.22 284.8Q754.67 285.77 754.67 287.29Q754.67 288.8 754.22 289.77Q753.76 290.75 752.86 291.22Q751.97 291.69 750.62 291.69ZM750.62 290.32Q751.42 290.32 751.94 290Q752.45 289.69 752.7 289.05Q752.94 288.41 752.94 287.44V287.15Q752.94 286.17 752.7 285.53Q752.45 284.89 751.94 284.58Q751.42 284.27 750.62 284.27Q749.84 284.27 749.33 284.58Q748.82 284.89 748.57 285.53Q748.32 286.17 748.32 287.15V287.44Q748.32 288.41 748.57 289.05Q748.82 289.69 749.33 290Q749.84 290.32 750.62 290.32ZM759.87 291.69Q758.99 291.69 758.32 291.5Q757.65 291.31 757.2 290.97Q756.75 290.64 756.52 290.16Q756.29 289.69 756.29 289.12Q756.29 289.04 756.3 288.97Q756.3 288.91 756.3 288.86H757.95Q757.95 288.91 757.95 288.95Q757.95 288.99 757.95 289.04Q757.95 289.53 758.22 289.83Q758.5 290.12 758.95 290.24Q759.41 290.36 759.95 290.36Q760.43 290.36 760.84 290.24Q761.25 290.12 761.51 289.88Q761.78 289.64 761.78 289.28Q761.78 288.8 761.44 288.54Q761.1 288.28 760.56 288.13Q760.02 287.98 759.42 287.8Q758.9 287.66 758.38 287.49Q757.86 287.32 757.44 287.05Q757.02 286.78 756.77 286.36Q756.51 285.95 756.51 285.32Q756.51 284.73 756.77 284.28Q757.02 283.84 757.48 283.53Q757.94 283.23 758.57 283.07Q759.2 282.91 759.95 282.91Q760.74 282.91 761.34 283.08Q761.95 283.24 762.38 283.55Q762.8 283.85 763.02 284.28Q763.25 284.7 763.25 285.18Q763.25 285.28 763.24 285.38Q763.23 285.48 763.23 285.52H761.6V285.37Q761.6 285.05 761.42 284.8Q761.25 284.54 760.87 284.38Q760.5 284.22 759.87 284.22Q759.46 284.22 759.14 284.29Q758.82 284.36 758.61 284.49Q758.4 284.62 758.3 284.8Q758.19 284.97 758.19 285.2Q758.19 285.56 758.46 285.76Q758.72 285.96 759.15 286.1Q759.58 286.24 760.08 286.4Q760.66 286.56 761.25 286.72Q761.84 286.89 762.34 287.15Q762.85 287.4 763.16 287.85Q763.47 288.3 763.47 289.05Q763.47 289.74 763.2 290.25Q762.93 290.76 762.44 291.08Q761.95 291.39 761.3 291.54Q760.64 291.69 759.87 291.69ZM769.23 294.27V283.08H770.59L770.74 284.24H770.85Q771.28 283.56 771.95 283.23Q772.62 282.89 773.46 282.89Q774.5 282.89 775.24 283.36Q775.98 283.82 776.38 284.8Q776.78 285.77 776.78 287.32Q776.78 288.83 776.38 289.8Q775.97 290.76 775.23 291.23Q774.5 291.69 773.54 291.69Q772.98 291.69 772.5 291.56Q772.02 291.44 771.64 291.16Q771.26 290.89 770.99 290.48H770.9V294.27ZM772.96 290.25Q773.71 290.25 774.18 289.96Q774.64 289.66 774.86 289.04Q775.07 288.41 775.07 287.45V287.16Q775.07 286.16 774.85 285.53Q774.62 284.91 774.17 284.62Q773.71 284.33 772.99 284.33Q772.26 284.33 771.79 284.66Q771.33 284.99 771.11 285.63Q770.9 286.27 770.9 287.18V287.4Q770.9 288.16 771.04 288.7Q771.18 289.24 771.46 289.59Q771.73 289.93 772.11 290.09Q772.5 290.25 772.96 290.25ZM781.02 291.69Q780.62 291.69 780.16 291.6Q779.7 291.5 779.29 291.24Q778.88 290.99 778.62 290.53Q778.37 290.08 778.37 289.34Q778.37 288.48 778.77 287.92Q779.17 287.36 779.89 287.04Q780.61 286.72 781.61 286.59Q782.61 286.46 783.79 286.46V285.63Q783.79 285.21 783.66 284.89Q783.52 284.57 783.16 284.4Q782.8 284.22 782.13 284.22Q781.46 284.22 781.08 284.39Q780.7 284.56 780.55 284.8Q780.4 285.05 780.4 285.34V285.58H778.8Q778.78 285.5 778.78 285.42Q778.78 285.34 778.78 285.23Q778.78 284.48 779.21 283.96Q779.63 283.44 780.4 283.16Q781.17 282.89 782.18 282.89Q783.26 282.89 783.99 283.2Q784.72 283.52 785.09 284.09Q785.46 284.67 785.46 285.48V289.76Q785.46 290.06 785.61 290.19Q785.76 290.32 785.97 290.32H786.54V291.44Q786.35 291.52 786.06 291.6Q785.78 291.68 785.39 291.68Q784.96 291.68 784.66 291.52Q784.37 291.37 784.18 291.09Q784 290.81 783.94 290.46H783.84Q783.55 290.83 783.14 291.11Q782.74 291.39 782.21 291.54Q781.68 291.69 781.02 291.69ZM781.49 290.32Q781.98 290.32 782.41 290.16Q782.83 290.01 783.14 289.73Q783.44 289.45 783.62 289.06Q783.79 288.67 783.79 288.2V287.64Q782.69 287.64 781.86 287.77Q781.02 287.9 780.56 288.24Q780.1 288.59 780.1 289.2Q780.1 289.56 780.26 289.81Q780.42 290.06 780.74 290.19Q781.06 290.32 781.49 290.32ZM791.2 291.69Q790.32 291.69 789.65 291.5Q788.98 291.31 788.53 290.97Q788.08 290.64 787.85 290.16Q787.62 289.69 787.62 289.12Q787.62 289.04 787.62 288.97Q787.63 288.91 787.63 288.86H789.28Q789.28 288.91 789.28 288.95Q789.28 288.99 789.28 289.04Q789.28 289.53 789.55 289.83Q789.82 290.12 790.28 290.24Q790.74 290.36 791.28 290.36Q791.76 290.36 792.17 290.24Q792.58 290.12 792.84 289.88Q793.1 289.64 793.1 289.28Q793.1 288.8 792.77 288.54Q792.43 288.28 791.89 288.13Q791.34 287.98 790.75 287.8Q790.22 287.66 789.7 287.49Q789.18 287.32 788.77 287.05Q788.35 286.78 788.1 286.36Q787.84 285.95 787.84 285.32Q787.84 284.73 788.1 284.28Q788.35 283.84 788.81 283.53Q789.26 283.23 789.9 283.07Q790.53 282.91 791.28 282.91Q792.06 282.91 792.67 283.08Q793.28 283.24 793.7 283.55Q794.13 283.85 794.35 284.28Q794.58 284.7 794.58 285.18Q794.58 285.28 794.57 285.38Q794.56 285.48 794.56 285.52H792.93V285.37Q792.93 285.05 792.75 284.8Q792.58 284.54 792.2 284.38Q791.82 284.22 791.2 284.22Q790.78 284.22 790.46 284.29Q790.14 284.36 789.94 284.49Q789.73 284.62 789.62 284.8Q789.52 284.97 789.52 285.2Q789.52 285.56 789.78 285.76Q790.05 285.96 790.48 286.1Q790.91 286.24 791.41 286.4Q791.98 286.56 792.58 286.72Q793.17 286.89 793.67 287.15Q794.18 287.4 794.49 287.85Q794.8 288.3 794.8 289.05Q794.8 289.74 794.53 290.25Q794.26 290.76 793.77 291.08Q793.28 291.39 792.62 291.54Q791.97 291.69 791.2 291.69ZM799.98 291.69Q799.1 291.69 798.43 291.5Q797.76 291.31 797.31 290.97Q796.86 290.64 796.63 290.16Q796.4 289.69 796.4 289.12Q796.4 289.04 796.41 288.97Q796.42 288.91 796.42 288.86H798.06Q798.06 288.91 798.06 288.95Q798.06 288.99 798.06 289.04Q798.06 289.53 798.34 289.83Q798.61 290.12 799.06 290.24Q799.52 290.36 800.06 290.36Q800.54 290.36 800.95 290.24Q801.36 290.12 801.62 289.88Q801.89 289.64 801.89 289.28Q801.89 288.8 801.55 288.54Q801.22 288.28 800.67 288.13Q800.13 287.98 799.54 287.8Q799.01 287.66 798.49 287.49Q797.97 287.32 797.55 287.05Q797.14 286.78 796.88 286.36Q796.62 285.95 796.62 285.32Q796.62 284.73 796.88 284.28Q797.14 283.84 797.59 283.53Q798.05 283.23 798.68 283.07Q799.31 282.91 800.06 282.91Q800.85 282.91 801.46 283.08Q802.06 283.24 802.49 283.55Q802.91 283.85 803.14 284.28Q803.36 284.7 803.36 285.18Q803.36 285.28 803.35 285.38Q803.34 285.48 803.34 285.52H801.71V285.37Q801.71 285.05 801.54 284.8Q801.36 284.54 800.98 284.38Q800.61 284.22 799.98 284.22Q799.57 284.22 799.25 284.29Q798.93 284.36 798.72 284.49Q798.51 284.62 798.41 284.8Q798.3 284.97 798.3 285.2Q798.3 285.56 798.57 285.76Q798.83 285.96 799.26 286.1Q799.7 286.24 800.19 286.4Q800.77 286.56 801.36 286.72Q801.95 286.89 802.46 287.15Q802.96 287.4 803.27 287.85Q803.58 288.3 803.58 289.05Q803.58 289.74 803.31 290.25Q803.04 290.76 802.55 291.08Q802.06 291.39 801.41 291.54Q800.75 291.69 799.98 291.69ZM807.76 291.69Q807.04 291.69 806.63 291.41Q806.22 291.13 806.06 290.69Q805.89 290.25 805.89 289.76V284.46H804.83V283.08H805.92L806.22 280.73H807.55V283.08H809.07V284.46H807.55V289.56Q807.55 289.93 807.71 290.12Q807.87 290.32 808.24 290.32H809.07V291.44Q808.91 291.5 808.68 291.56Q808.45 291.61 808.21 291.65Q807.97 291.69 807.76 291.69ZM810.94 291.5V279.93H812.61V284.09H812.72Q813.02 283.71 813.41 283.44Q813.79 283.18 814.27 283.04Q814.75 282.89 815.33 282.89Q816.13 282.89 816.74 283.17Q817.34 283.45 817.69 284.08Q818.03 284.7 818.03 285.76V291.5H816.37V286.01Q816.37 285.53 816.25 285.21Q816.13 284.89 815.9 284.7Q815.68 284.51 815.38 284.43Q815.07 284.35 814.7 284.35Q814.13 284.35 813.66 284.62Q813.18 284.89 812.9 285.39Q812.61 285.88 812.61 286.57V291.5ZM820.51 291.5V283.08H821.89L822.03 284.44H822.13Q822.27 284.04 822.5 283.69Q822.74 283.34 823.11 283.12Q823.49 282.89 824.03 282.89Q824.29 282.89 824.49 282.94Q824.69 282.99 824.8 283.02V284.59H824.24Q823.73 284.59 823.34 284.75Q822.94 284.91 822.68 285.22Q822.42 285.53 822.3 285.98Q822.18 286.43 822.18 286.99V291.5ZM829.87 291.69Q828.56 291.69 827.66 291.22Q826.75 290.75 826.3 289.77Q825.84 288.8 825.84 287.29Q825.84 285.77 826.3 284.8Q826.75 283.84 827.66 283.36Q828.56 282.89 829.87 282.89Q831.22 282.89 832.11 283.36Q833.01 283.84 833.46 284.8Q833.92 285.77 833.92 287.29Q833.92 288.8 833.46 289.77Q833.01 290.75 832.11 291.22Q831.22 291.69 829.87 291.69ZM829.87 290.32Q830.67 290.32 831.18 290Q831.7 289.69 831.94 289.05Q832.19 288.41 832.19 287.44V287.15Q832.19 286.17 831.94 285.53Q831.7 284.89 831.18 284.58Q830.67 284.27 829.87 284.27Q829.09 284.27 828.58 284.58Q828.06 284.89 827.82 285.53Q827.57 286.17 827.57 287.15V287.44Q827.57 288.41 827.82 289.05Q828.06 289.69 828.58 290Q829.09 290.32 829.87 290.32ZM838.66 291.69Q837.44 291.69 836.69 291.04Q835.94 290.4 835.94 288.83V283.08H837.6V288.57Q837.6 289.05 837.72 289.37Q837.84 289.69 838.06 289.88Q838.29 290.08 838.59 290.16Q838.9 290.24 839.26 290.24Q839.84 290.24 840.31 289.96Q840.78 289.68 841.07 289.17Q841.36 288.67 841.36 288.01V283.08H843.02V291.5H841.66L841.52 290.3H841.41Q841.1 290.76 840.69 291.07Q840.27 291.37 839.77 291.53Q839.26 291.69 838.66 291.69ZM846.98 294.41Q846.4 294.41 845.9 294.17Q845.39 293.93 845.09 293.48Q844.78 293.04 844.78 292.4Q844.78 291.69 845.18 291.25Q845.57 290.81 846.1 290.59Q845.71 290.41 845.48 290.08Q845.25 289.74 845.25 289.31Q845.25 288.72 845.68 288.35Q846.11 287.98 846.69 287.87Q846.13 287.5 845.82 286.94Q845.5 286.38 845.5 285.68Q845.5 284.83 845.9 284.21Q846.3 283.6 847.1 283.24Q847.89 282.89 849.02 282.89Q849.52 282.89 849.96 282.96Q850.4 283.04 850.75 283.16Q851.31 282.88 851.55 282.47Q851.79 282.06 851.84 281.71H853.47Q853.47 282.24 853.26 282.66Q853.04 283.08 852.66 283.36Q852.29 283.64 851.76 283.76Q852.16 284.12 852.36 284.61Q852.56 285.1 852.56 285.68Q852.56 286.51 852.18 287.13Q851.79 287.76 851.02 288.11Q850.24 288.46 849.1 288.46H847.79Q847.41 288.46 847.18 288.62Q846.94 288.78 846.94 289.1Q846.94 289.37 847.17 289.55Q847.39 289.72 847.76 289.72H851.31Q852.24 289.72 852.85 290.34Q853.46 290.96 853.46 291.92Q853.46 292.62 853.1 293.19Q852.74 293.76 852.09 294.08Q851.44 294.41 850.59 294.41ZM847.52 293.18H850.58Q850.91 293.18 851.18 293.05Q851.46 292.92 851.62 292.69Q851.78 292.46 851.78 292.17Q851.78 291.69 851.48 291.42Q851.18 291.15 850.75 291.15H847.52Q847.07 291.15 846.77 291.44Q846.46 291.74 846.46 292.17Q846.46 292.62 846.76 292.9Q847.06 293.18 847.52 293.18ZM849.04 287.26Q849.98 287.26 850.45 286.84Q850.91 286.41 850.91 285.68Q850.91 284.92 850.45 284.52Q849.98 284.11 849.04 284.11Q848.1 284.11 847.63 284.52Q847.17 284.92 847.17 285.68Q847.17 286.16 847.37 286.52Q847.57 286.88 847.99 287.07Q848.42 287.26 849.04 287.26ZM855.14 291.5V279.93H856.8V284.09H856.91Q857.22 283.71 857.6 283.44Q857.98 283.18 858.46 283.04Q858.94 282.89 859.52 282.89Q860.32 282.89 860.93 283.17Q861.54 283.45 861.88 284.08Q862.22 284.7 862.22 285.76V291.5H860.56V286.01Q860.56 285.53 860.44 285.21Q860.32 284.89 860.1 284.7Q859.87 284.51 859.57 284.43Q859.26 284.35 858.9 284.35Q858.32 284.35 857.85 284.62Q857.38 284.89 857.09 285.39Q856.8 285.88 856.8 286.57V291.5Z" fill="#8a6420"/><rect x="889.2320000000001" y="269" width="135.6" height="34" rx="17" fill="none" stroke="#b08530" stroke-opacity="0.55" stroke-width="1.5"/><path d="M906.53 291.5V280.52H912Q913.17 280.52 913.94 280.96Q914.7 281.39 915.1 282.15Q915.49 282.91 915.49 283.95Q915.49 284.99 915.07 285.78Q914.66 286.57 913.86 287Q913.07 287.44 911.94 287.44H908.32V291.5ZM908.32 285.9H911.86Q912.7 285.9 913.19 285.39Q913.68 284.88 913.68 283.96Q913.68 283.36 913.47 282.93Q913.26 282.51 912.86 282.28Q912.46 282.06 911.86 282.06H908.32ZM922.58 291.69Q919.97 291.69 918.57 290.32Q917.17 288.94 917.17 286.01Q917.17 284.09 917.82 282.84Q918.48 281.58 919.73 280.96Q920.98 280.33 922.77 280.33Q923.84 280.33 924.76 280.57Q925.68 280.81 926.38 281.3Q927.07 281.79 927.45 282.52Q927.82 283.26 927.82 284.27H926Q926 283.64 925.75 283.19Q925.5 282.73 925.06 282.43Q924.62 282.12 924.04 281.99Q923.46 281.85 922.8 281.85Q921.89 281.85 921.18 282.09Q920.46 282.33 919.98 282.83Q919.5 283.32 919.26 284.08Q919.02 284.83 919.02 285.85V286.19Q919.02 287.6 919.43 288.48Q919.84 289.36 920.65 289.76Q921.46 290.17 922.62 290.17Q923.73 290.17 924.48 289.85Q925.23 289.53 925.63 288.9Q926.03 288.27 926.03 287.32V287.16H922.34V285.68H927.82V291.5H926.53L926.35 290.19Q925.9 290.72 925.33 291.04Q924.75 291.37 924.07 291.53Q923.39 291.69 922.58 291.69ZM934.78 291.69Q933.89 291.69 933.06 291.51Q932.22 291.32 931.58 290.92Q930.94 290.51 930.58 289.88Q930.21 289.24 930.21 288.36Q930.21 288.27 930.22 288.18Q930.22 288.09 930.22 288.03H932.02Q932.02 288.08 932.01 288.17Q932 288.27 932 288.33Q932 288.92 932.35 289.34Q932.7 289.76 933.34 289.96Q933.97 290.17 934.78 290.17Q935.23 290.17 935.65 290.12Q936.06 290.06 936.41 289.94Q936.75 289.82 937.01 289.64Q937.26 289.45 937.41 289.2Q937.55 288.94 937.55 288.6Q937.55 288.09 937.26 287.76Q936.96 287.42 936.46 287.2Q935.95 286.97 935.32 286.8Q934.69 286.62 934.02 286.44Q933.34 286.27 932.71 286.03Q932.08 285.79 931.58 285.44Q931.07 285.1 930.78 284.58Q930.48 284.06 930.48 283.31Q930.48 282.59 930.78 282.03Q931.09 281.47 931.66 281.09Q932.24 280.72 933.04 280.52Q933.84 280.33 934.85 280.33Q935.71 280.33 936.48 280.52Q937.25 280.7 937.82 281.08Q938.4 281.47 938.73 282.06Q939.06 282.65 939.06 283.47V283.66H937.28V283.45Q937.28 282.94 936.98 282.59Q936.67 282.24 936.13 282.04Q935.58 281.85 934.86 281.85Q934.02 281.85 933.44 282.02Q932.86 282.19 932.57 282.48Q932.27 282.78 932.27 283.2Q932.27 283.66 932.58 283.96Q932.88 284.25 933.38 284.46Q933.89 284.67 934.52 284.84Q935.15 285 935.82 285.19Q936.48 285.37 937.11 285.61Q937.74 285.85 938.25 286.2Q938.75 286.56 939.06 287.08Q939.36 287.6 939.36 288.35Q939.36 289.53 938.77 290.28Q938.18 291.02 937.14 291.36Q936.11 291.69 934.78 291.69ZM948.4 291.69Q947.52 291.69 946.85 291.5Q946.18 291.31 945.73 290.97Q945.28 290.64 945.05 290.16Q944.82 289.69 944.82 289.12Q944.82 289.04 944.82 288.97Q944.83 288.91 944.83 288.86H946.48Q946.48 288.91 946.48 288.95Q946.48 288.99 946.48 289.04Q946.48 289.53 946.75 289.83Q947.02 290.12 947.48 290.24Q947.94 290.36 948.48 290.36Q948.96 290.36 949.37 290.24Q949.78 290.12 950.04 289.88Q950.3 289.64 950.3 289.28Q950.3 288.8 949.97 288.54Q949.63 288.28 949.09 288.13Q948.54 287.98 947.95 287.8Q947.42 287.66 946.9 287.49Q946.38 287.32 945.97 287.05Q945.55 286.78 945.3 286.36Q945.04 285.95 945.04 285.32Q945.04 284.73 945.3 284.28Q945.55 283.84 946.01 283.53Q946.46 283.23 947.1 283.07Q947.73 282.91 948.48 282.91Q949.26 282.91 949.87 283.08Q950.48 283.24 950.9 283.55Q951.33 283.85 951.55 284.28Q951.78 284.7 951.78 285.18Q951.78 285.28 951.77 285.38Q951.76 285.48 951.76 285.52H950.13V285.37Q950.13 285.05 949.95 284.8Q949.78 284.54 949.4 284.38Q949.02 284.22 948.4 284.22Q947.98 284.22 947.66 284.29Q947.34 284.36 947.14 284.49Q946.93 284.62 946.82 284.8Q946.72 284.97 946.72 285.2Q946.72 285.56 946.98 285.76Q947.25 285.96 947.68 286.1Q948.11 286.24 948.61 286.4Q949.18 286.56 949.78 286.72Q950.37 286.89 950.87 287.15Q951.38 287.4 951.69 287.85Q952 288.3 952 289.05Q952 289.74 951.73 290.25Q951.46 290.76 950.97 291.08Q950.48 291.39 949.82 291.54Q949.17 291.69 948.4 291.69ZM956.72 291.69Q955.5 291.69 954.75 291.04Q954 290.4 954 288.83V283.08H955.66V288.57Q955.66 289.05 955.78 289.37Q955.9 289.69 956.13 289.88Q956.35 290.08 956.66 290.16Q956.96 290.24 957.33 290.24Q957.9 290.24 958.38 289.96Q958.85 289.68 959.14 289.17Q959.42 288.67 959.42 288.01V283.08H961.09V291.5H959.73L959.58 290.3H959.47Q959.17 290.76 958.75 291.07Q958.34 291.37 957.83 291.53Q957.33 291.69 956.72 291.69ZM967.86 291.69Q967.02 291.69 966.35 291.36Q965.68 291.02 965.25 290.35H965.14L964.99 291.5H963.63V279.93H965.3V284.11H965.39Q965.66 283.69 966.04 283.42Q966.42 283.15 966.9 283.02Q967.38 282.89 967.94 282.89Q968.9 282.89 969.63 283.36Q970.37 283.82 970.78 284.78Q971.18 285.74 971.18 287.26Q971.18 288.81 970.78 289.79Q970.38 290.76 969.64 291.23Q968.9 291.69 967.86 291.69ZM967.39 290.25Q968.11 290.25 968.57 289.96Q969.02 289.68 969.25 289.06Q969.47 288.44 969.47 287.45V287.16Q969.47 286.17 969.26 285.55Q969.04 284.92 968.58 284.63Q968.11 284.33 967.36 284.33Q966.9 284.33 966.51 284.49Q966.13 284.65 965.86 285Q965.58 285.34 965.44 285.88Q965.3 286.43 965.3 287.2V287.42Q965.3 288.33 965.51 288.96Q965.73 289.6 966.19 289.92Q966.66 290.25 967.39 290.25ZM975.39 291.69Q974.67 291.69 974.26 291.41Q973.86 291.13 973.69 290.69Q973.52 290.25 973.52 289.76V284.46H972.46V283.08H973.55L973.86 280.73H975.18V283.08H976.7V284.46H975.18V289.56Q975.18 289.93 975.34 290.12Q975.5 290.32 975.87 290.32H976.7V291.44Q976.54 291.5 976.31 291.56Q976.08 291.61 975.84 291.65Q975.6 291.69 975.39 291.69ZM978.58 281.63V279.93H980.24V281.63ZM978.58 291.5V283.08H980.24V291.5ZM984.88 291.69Q984.16 291.69 983.75 291.41Q983.34 291.13 983.18 290.69Q983.01 290.25 983.01 289.76V284.46H981.95V283.08H983.04L983.34 280.73H984.67V283.08H986.19V284.46H984.67V289.56Q984.67 289.93 984.83 290.12Q984.99 290.32 985.36 290.32H986.19V291.44Q986.03 291.5 985.8 291.56Q985.57 291.61 985.33 291.65Q985.09 291.69 984.88 291.69ZM988.06 291.5V279.93H989.73V291.5ZM995.76 291.69Q994.46 291.69 993.59 291.22Q992.72 290.75 992.27 289.77Q991.82 288.8 991.82 287.29Q991.82 285.77 992.27 284.8Q992.72 283.84 993.6 283.36Q994.48 282.89 995.79 282.89Q996.99 282.89 997.8 283.35Q998.61 283.8 999.02 284.73Q999.44 285.66 999.44 287.07V287.71H993.54Q993.57 288.6 993.81 289.2Q994.05 289.8 994.54 290.08Q995.02 290.36 995.78 290.36Q996.24 290.36 996.61 290.24Q996.98 290.12 997.23 289.89Q997.49 289.66 997.63 289.33Q997.78 289 997.78 288.59H999.41Q999.41 289.34 999.15 289.92Q998.9 290.49 998.41 290.88Q997.92 291.28 997.25 291.48Q996.58 291.69 995.76 291.69ZM993.57 286.49H997.7Q997.7 285.87 997.56 285.44Q997.42 285.02 997.17 284.75Q996.91 284.48 996.56 284.36Q996.21 284.24 995.76 284.24Q995.09 284.24 994.62 284.48Q994.14 284.72 993.89 285.22Q993.63 285.72 993.57 286.49ZM1004.64 291.69Q1003.76 291.69 1003.09 291.5Q1002.42 291.31 1001.97 290.97Q1001.52 290.64 1001.29 290.16Q1001.06 289.69 1001.06 289.12Q1001.06 289.04 1001.06 288.97Q1001.07 288.91 1001.07 288.86H1002.72Q1002.72 288.91 1002.72 288.95Q1002.72 288.99 1002.72 289.04Q1002.72 289.53 1002.99 289.83Q1003.26 290.12 1003.72 290.24Q1004.18 290.36 1004.72 290.36Q1005.2 290.36 1005.61 290.24Q1006.02 290.12 1006.28 289.88Q1006.54 289.64 1006.54 289.28Q1006.54 288.8 1006.21 288.54Q1005.87 288.28 1005.33 288.13Q1004.78 287.98 1004.19 287.8Q1003.66 287.66 1003.14 287.49Q1002.62 287.32 1002.21 287.05Q1001.79 286.78 1001.54 286.36Q1001.28 285.95 1001.28 285.32Q1001.28 284.73 1001.54 284.28Q1001.79 283.84 1002.25 283.53Q1002.7 283.23 1003.34 283.07Q1003.97 282.91 1004.72 282.91Q1005.5 282.91 1006.11 283.08Q1006.72 283.24 1007.14 283.55Q1007.57 283.85 1007.79 284.28Q1008.02 284.7 1008.02 285.18Q1008.02 285.28 1008.01 285.38Q1008 285.48 1008 285.52H1006.37V285.37Q1006.37 285.05 1006.19 284.8Q1006.02 284.54 1005.64 284.38Q1005.26 284.22 1004.64 284.22Q1004.22 284.22 1003.9 284.29Q1003.58 284.36 1003.38 284.49Q1003.17 284.62 1003.06 284.8Q1002.96 284.97 1002.96 285.2Q1002.96 285.56 1003.22 285.76Q1003.49 285.96 1003.92 286.1Q1004.35 286.24 1004.85 286.4Q1005.42 286.56 1006.02 286.72Q1006.61 286.89 1007.11 287.15Q1007.62 287.4 1007.93 287.85Q1008.24 288.3 1008.24 289.05Q1008.24 289.74 1007.97 290.25Q1007.7 290.76 1007.21 291.08Q1006.72 291.39 1006.06 291.54Q1005.41 291.69 1004.64 291.69Z" fill="#8a6420"/></svg>